<?xml version="1.0" encoding="utf-8"?><svg width="438" height="377" viewBox="0 0 438 377" xmlns="http://www.w3.org/2000/svg" xmlns:xlink="http://www.w3.org/1999/xlink"><svg id="clear-view-escapes" data-name="Layer 1" width="144.4" height="61.53" viewBox="-1 -1 144.4 61.53" y="78.65" xmlns="http://www.w3.org/2000/svg"><defs><style>.aacls-1{fill:#fff}</style></defs><path class="aacls-1" d="M19.5 27.52v4.75H5.93v5.51h12.45v4.39H5.93v6.3h13.85v4.75H.28v-25.7H19.5zM27.36 48.59a3 3 0 0 0 .88 1 3.78 3.78 0 0 0 1.24.56 5.84 5.84 0 0 0 1.46.18 5.46 5.46 0 0 0 1.13-.13 3.86 3.86 0 0 0 1.08-.4 2.47 2.47 0 0 0 .85-.75 1.89 1.89 0 0 0 .32-1.13 1.91 1.91 0 0 0-1.53-1.73 30.59 30.59 0 0 0-4.3-1.19q-1.12-.25-2.18-.59a7.38 7.38 0 0 1-1.89-.9 4.35 4.35 0 0 1-1.33-1.4 4 4 0 0 1-.5-2.07 5.6 5.6 0 0 1 .7-3 5.16 5.16 0 0 1 1.85-1.82 8.13 8.13 0 0 1 2.59-.94 15.92 15.92 0 0 1 3-.27 14.79 14.79 0 0 1 2.93.29 7.77 7.77 0 0 1 2.54 1 5.83 5.83 0 0 1 1.8 1.88 6.11 6.11 0 0 1 .89 2.82H34a2.24 2.24 0 0 0-1.12-2 5.1 5.1 0 0 0-2.37-.52 8.77 8.77 0 0 0-.94.05 3.15 3.15 0 0 0-.92.23 1.91 1.91 0 0 0-.7.52 1.38 1.38 0 0 0-.29.92 1.4 1.4 0 0 0 .5 1.12 3.88 3.88 0 0 0 1.31.7 16.38 16.38 0 0 0 1.85.49l2.18.49a21.57 21.57 0 0 1 2.18.61 7.2 7.2 0 0 1 1.89 1 4.63 4.63 0 0 1 1.33 1.48 4.34 4.34 0 0 1 .5 2.18 5.65 5.65 0 0 1-2.66 5.07A7.9 7.9 0 0 1 34 53.37a15.9 15.9 0 0 1-3.11.31 15.36 15.36 0 0 1-3.17-.32A8.35 8.35 0 0 1 25 52.27a6.17 6.17 0 0 1-2-2 6.25 6.25 0 0 1-.85-3.11H27a2.8 2.8 0 0 0 .36 1.43zM51.27 38a3.59 3.59 0 0 0-2.05.56A4.45 4.45 0 0 0 47.87 40a6.23 6.23 0 0 0-.74 1.94 10.54 10.54 0 0 0-.21 2.06 10.11 10.11 0 0 0 .21 2 6.32 6.32 0 0 0 .7 1.89 4 4 0 0 0 1.31 1.39 3.61 3.61 0 0 0 2 .54 3.75 3.75 0 0 0 2.83-1 4.86 4.86 0 0 0 1.24-2.75h4.93a8.43 8.43 0 0 1-2.88 5.65 9.29 9.29 0 0 1-6.08 1.94 10.16 10.16 0 0 1-3.83-.7 8.49 8.49 0 0 1-3-2 8.92 8.92 0 0 1-1.91-3 10.42 10.42 0 0 1-.68-3.83 12.4 12.4 0 0 1 .63-4 9 9 0 0 1 1.9-3.13 8.49 8.49 0 0 1 3-2.1 10.15 10.15 0 0 1 4-.76 11.63 11.63 0 0 1 3.19.43 8.49 8.49 0 0 1 2.73 1.31 6.79 6.79 0 0 1 2.83 5.31h-5A3.43 3.43 0 0 0 51.27 38zM62.82 40.33a5.93 5.93 0 0 1 .9-3 6.13 6.13 0 0 1 2-1.91 8.83 8.83 0 0 1 2.75-1 15.71 15.71 0 0 1 3.08-.31 20.85 20.85 0 0 1 2.84.2 8.72 8.72 0 0 1 2.63.77A5.18 5.18 0 0 1 79 36.67a4.47 4.47 0 0 1 .76 2.72v9.68a19.49 19.49 0 0 0 .14 2.41 4.34 4.34 0 0 0 .5 1.73h-5.19a6.77 6.77 0 0 1-.21-.88 7.44 7.44 0 0 1-.13-.92A6.64 6.64 0 0 1 72 53.17a11.55 11.55 0 0 1-3.38.5 9.1 9.1 0 0 1-2.48-.32 5.68 5.68 0 0 1-2-1 4.69 4.69 0 0 1-1.35-1.73 5.84 5.84 0 0 1-.49-2.48 5.42 5.42 0 0 1 .56-2.61 4.66 4.66 0 0 1 1.44-1.64 6.44 6.44 0 0 1 2-.92 21.75 21.75 0 0 1 2.29-.49q1.15-.18 2.27-.29a13.74 13.74 0 0 0 2-.32 3.43 3.43 0 0 0 1.37-.63 1.38 1.38 0 0 0 .4-1.24 2.72 2.72 0 0 0-.27-1.31 2 2 0 0 0-.72-.69 2.86 2.86 0 0 0-1-.36 8.61 8.61 0 0 0-1.28-.09 3.88 3.88 0 0 0-2.37.65 2.89 2.89 0 0 0-1 2.16h-5.17zm11.8 3.78a2.28 2.28 0 0 1-.81.45 8.28 8.28 0 0 1-1 .27c-.41.07-.81.17-1.2.17s-.82.11-1.22.18a9.24 9.24 0 0 0-1.13.29 3.34 3.34 0 0 0-1 .49 2.3 2.3 0 0 0-.67.77 2.49 2.49 0 0 0-.25 1.19 2.4 2.4 0 0 0 .25 1.15 1.93 1.93 0 0 0 .68.74 2.9 2.9 0 0 0 1 .38 6.48 6.48 0 0 0 1.19.11 4.51 4.51 0 0 0 2.34-.5 3.36 3.36 0 0 0 1.22-1.21 3.87 3.87 0 0 0 .49-1.42 10.06 10.06 0 0 0 .12-1.17v-1.89zM88.56 34.6V37h.07A5.62 5.62 0 0 1 91 34.78a7.29 7.29 0 0 1 3.17-.68 8.07 8.07 0 0 1 3.78.83 7.82 7.82 0 0 1 2.63 2.2 9.31 9.31 0 0 1 1.55 3.19 14.19 14.19 0 0 1 .5 3.8 12.82 12.82 0 0 1-.5 3.6 9.18 9.18 0 0 1-1.53 3.06 7.58 7.58 0 0 1-2.6 2.11 7.69 7.69 0 0 1-3.58.79 7.23 7.23 0 0 1-3.18-.7 6 6 0 0 1-2.39-2.07h-.04v8.82H83.7V34.6h4.86zm6.64 14.76A4.09 4.09 0 0 0 96.56 48a5.43 5.43 0 0 0 .74-1.89 11.19 11.19 0 0 0 .22-2.2 10.32 10.32 0 0 0-.23-2.2 5.86 5.86 0 0 0-.77-1.92 4.33 4.33 0 0 0-1.39-1.37 3.87 3.87 0 0 0-2.08-.42 3.94 3.94 0 0 0-2.11.52 4.22 4.22 0 0 0-1.37 1.35 5.6 5.6 0 0 0-.74 1.91 11.3 11.3 0 0 0-.2 2.22 10.31 10.31 0 0 0 .23 2.2 5.69 5.69 0 0 0 .76 1.8 4.36 4.36 0 0 0 5.58 1.36zM111.15 48.75a5.24 5.24 0 0 0 6 .34 3.21 3.21 0 0 0 1.37-1.64H123a8.54 8.54 0 0 1-3.31 4.79 9.75 9.75 0 0 1-5.4 1.44 10.6 10.6 0 0 1-4-.7 8.22 8.22 0 0 1-3-2 9 9 0 0 1-1.89-3.09 11.34 11.34 0 0 1-.67-4 10.84 10.84 0 0 1 .68-3.89 9 9 0 0 1 4.95-5.18 9.63 9.63 0 0 1 3.87-.76 8.84 8.84 0 0 1 4.14.92 8.26 8.26 0 0 1 2.9 2.46A10.14 10.14 0 0 1 123 41a13.14 13.14 0 0 1 .36 4.14H109.9a5.16 5.16 0 0 0 1.25 3.61zm5.78-9.75a3.59 3.59 0 0 0-2.79-1 4.45 4.45 0 0 0-2 .41 3.89 3.89 0 0 0-1.3 1 3.77 3.77 0 0 0-.68 1.3 5.83 5.83 0 0 0-.23 1.22h8.31a5.91 5.91 0 0 0-1.31-2.93zM130.64 48.59a3 3 0 0 0 .88 1 3.78 3.78 0 0 0 1.24.56 5.83 5.83 0 0 0 1.46.18 5.46 5.46 0 0 0 1.13-.13 3.86 3.86 0 0 0 1.08-.4 2.47 2.47 0 0 0 .81-.72 1.89 1.89 0 0 0 .32-1.13 1.91 1.91 0 0 0-1.56-1.76 30.55 30.55 0 0 0-4.22-1.19q-1.11-.25-2.18-.59a7.39 7.39 0 0 1-1.89-.9 4.36 4.36 0 0 1-1.33-1.4 4 4 0 0 1-.5-2.07 5.6 5.6 0 0 1 .7-3 5.18 5.18 0 0 1 1.85-1.82 8.13 8.13 0 0 1 2.59-.94 15.91 15.91 0 0 1 3-.27 14.79 14.79 0 0 1 2.93.29 7.77 7.77 0 0 1 2.54 1 5.84 5.84 0 0 1 1.85 1.82 6.11 6.11 0 0 1 .88 2.86h-4.86a2.24 2.24 0 0 0-1.12-2 5.1 5.1 0 0 0-2.37-.52 8.77 8.77 0 0 0-.94.05 3.15 3.15 0 0 0-.92.23 1.9 1.9 0 0 0-.7.52 1.38 1.38 0 0 0-.29.92 1.4 1.4 0 0 0 .5 1.12 3.87 3.87 0 0 0 1.31.7 16.33 16.33 0 0 0 1.85.49l2.1.51a21.57 21.57 0 0 1 2.18.61 7.18 7.18 0 0 1 1.89 1 4.63 4.63 0 0 1 1.33 1.48 4.33 4.33 0 0 1 .5 2.18 5.65 5.65 0 0 1-2.68 5.04 7.89 7.89 0 0 1-2.72 1.06 15.9 15.9 0 0 1-3.11.31 15.35 15.35 0 0 1-3.17-.32 8.35 8.35 0 0 1-2.75-1.08 6.18 6.18 0 0 1-2-2 6.25 6.25 0 0 1-.85-3.11h4.86a2.8 2.8 0 0 0 .38 1.42zM23.64 6.29a6.36 6.36 0 0 0-.55-1.43 4 4 0 0 0-.9-1.12A4 4 0 0 0 20.9 3a5.11 5.11 0 0 0-1.71-.26 5 5 0 0 0-2.46.58A4.84 4.84 0 0 0 15 4.85a6.93 6.93 0 0 0-1 2.19 10.16 10.16 0 0 0 0 5 6.92 6.92 0 0 0 1 2.19 4.83 4.83 0 0 0 1.69 1.54 5 5 0 0 0 2.46.57A4.44 4.44 0 0 0 21 16a4.12 4.12 0 0 0 1.38-1 4.71 4.71 0 0 0 .9-1.49 7.13 7.13 0 0 0 .43-1.83h3.05a8.48 8.48 0 0 1-.69 2.93 7.17 7.17 0 0 1-1.59 2.29 7 7 0 0 1-2.35 1.49 8.14 8.14 0 0 1-3 .53 8.43 8.43 0 0 1-3.59-.74 7.88 7.88 0 0 1-2.69-2 9 9 0 0 1-1.69-3 11 11 0 0 1-.59-3.63 11 11 0 0 1 .59-3.6 9 9 0 0 1 1.69-3 8 8 0 0 1 2.69-2 8.29 8.29 0 0 1 3.65-.76A9.46 9.46 0 0 1 22 .6a7.31 7.31 0 0 1 2.34 1.2A6.23 6.23 0 0 1 26 3.72a6.66 6.66 0 0 1 .78 2.58h-3.14zM29.31.62h2.85v17.85h-2.85V.62zM37.49 12.74a5 5 0 0 0 .21 1.45 3.57 3.57 0 0 0 .64 1.23 3.06 3.06 0 0 0 1.08.84 3.54 3.54 0 0 0 1.55.31A3.42 3.42 0 0 0 43 16a3.17 3.17 0 0 0 1.14-1.61h2.7a5.36 5.36 0 0 1-2.1 3.26 5.71 5.71 0 0 1-1.74.85 7 7 0 0 1-2 .29 6.85 6.85 0 0 1-2.7-.5 5.58 5.58 0 0 1-2-1.4 5.93 5.93 0 0 1-1.3-2.12 8.74 8.74 0 0 1-.36-2.77 7.79 7.79 0 0 1 .44-2.61 6.68 6.68 0 0 1 1.25-2.18 5.86 5.86 0 0 1 4.56-2 5.8 5.8 0 0 1 2.74.64 6 6 0 0 1 2 1.69 6.84 6.84 0 0 1 1.17 2.39 7.42 7.42 0 0 1 .2 2.81h-9.5zm6.65-1.88a4.61 4.61 0 0 0-.29-1.3 3.47 3.47 0 0 0-.65-1.09 3.23 3.23 0 0 0-1-.75 3 3 0 0 0-1.31-.29 3.42 3.42 0 0 0-1.36.26 3.11 3.11 0 0 0-1.05.73 3.59 3.59 0 0 0-.7 1.09 3.78 3.78 0 0 0-.29 1.35h6.65zM60 15.59a1.51 1.51 0 0 0 .14.75.58.58 0 0 0 .54.23H61a1.85 1.85 0 0 0 .4 0v2l-.4.04-.49.11-.5.08h-.43a2.75 2.75 0 0 1-1.45-.35 1.74 1.74 0 0 1-.75-1.23 5 5 0 0 1-2.09 1.2 8.22 8.22 0 0 1-2.39.38 5.86 5.86 0 0 1-1.68-.24 4.38 4.38 0 0 1-1.41-.7 3.35 3.35 0 0 1-1-1.18 3.62 3.62 0 0 1-.35-1.68 3.84 3.84 0 0 1 .44-2 3.24 3.24 0 0 1 1.15-1.18 5.21 5.21 0 0 1 1.6-.61q.89-.19 1.79-.29a14.67 14.67 0 0 1 1.48-.21 6.86 6.86 0 0 0 1.24-.21 1.9 1.9 0 0 0 .84-.37 1.27 1.27 0 0 0 .31-.94 1.46 1.46 0 0 0-.26-.9 1.77 1.77 0 0 0-.65-.54 2.82 2.82 0 0 0-.86-.25 6.94 6.94 0 0 0-.9-.06 3.58 3.58 0 0 0-2 .5 2 2 0 0 0-.87 1.55h-2.83a4.29 4.29 0 0 1 .6-2.08 4.14 4.14 0 0 1 1.34-1.33 5.48 5.48 0 0 1 1.84-.7 10.94 10.94 0 0 1 2.1-.2 8.85 8.85 0 0 1 1.88.2 5.34 5.34 0 0 1 1.65.62 3.61 3.61 0 0 1 1.19 1.16A3.19 3.19 0 0 1 60 8.94v6.65zM57.14 12a3.45 3.45 0 0 1-1.6.51q-1 .09-1.9.26a6.12 6.12 0 0 0-.87.21 2.63 2.63 0 0 0-.75.38 1.65 1.65 0 0 0-.51.63 2.14 2.14 0 0 0-.19.94 1.19 1.19 0 0 0 .27.8 2 2 0 0 0 .66.51 3.08 3.08 0 0 0 .85.26 5.3 5.3 0 0 0 .84.07 4.6 4.6 0 0 0 1-.12A3.4 3.4 0 0 0 56 16a2.73 2.73 0 0 0 .81-.76 1.93 1.93 0 0 0 .33-1.14V12zM63.06 5.54h2.68V8h.05a2.88 2.88 0 0 1 .49-1 4.73 4.73 0 0 1 .88-.91 4.4 4.4 0 0 1 1.14-.66 3.41 3.41 0 0 1 1.28-.25 6.21 6.21 0 0 1 .69 0h.39V8L70 7.93a5.06 5.06 0 0 0-.61 0 3.28 3.28 0 0 0-1.36.29 3.13 3.13 0 0 0-1.09.78 4.16 4.16 0 0 0-.75 1.39 6 6 0 0 0-.27 1.9v6.15h-2.86V5.54zM77.19.62h3.25l4.48 14.13H85L89.54.62h3.17l-6.1 17.85h-3.47zM94.42.62h2.85v2.7h-2.85V.62zm0 4.93h2.85v12.92h-2.85V5.54zM102.59 12.74a5 5 0 0 0 .21 1.45 3.57 3.57 0 0 0 .64 1.23 3.06 3.06 0 0 0 1.08.84 3.54 3.54 0 0 0 1.55.31 3.42 3.42 0 0 0 2-.54 3.18 3.18 0 0 0 1.14-1.61h2.7a5.36 5.36 0 0 1-2.1 3.26 5.71 5.71 0 0 1-1.74.85 7 7 0 0 1-2 .29 6.85 6.85 0 0 1-2.7-.5 5.58 5.58 0 0 1-2-1.4 5.93 5.93 0 0 1-1.22-2.15 8.73 8.73 0 0 1-.41-2.77 7.77 7.77 0 0 1 .44-2.61 6.69 6.69 0 0 1 1.25-2.18 5.86 5.86 0 0 1 4.56-2 5.79 5.79 0 0 1 2.74.64 6 6 0 0 1 2 1.69 6.85 6.85 0 0 1 1.16 2.41 7.42 7.42 0 0 1 .19 2.81h-9.5zm6.65-1.88a4.6 4.6 0 0 0-.29-1.3 3.48 3.48 0 0 0-.65-1.09 3.22 3.22 0 0 0-1-.75 3 3 0 0 0-1.3-.28 3.43 3.43 0 0 0-1.36.26 3.12 3.12 0 0 0-1 .73 3.6 3.6 0 0 0-.7 1.09 3.8 3.8 0 0 0-.29 1.35h6.65zM113.1 5.54h3l2.53 9.65 2.42-9.65H124l2.33 9.65L129 5.54h2.9l-4 12.93h-2.93l-2.4-9.6-2.37 9.6h-3z" transform="translate(-.28 -.19)"/></svg><svg id="comment" data-name="Layer 1" width="66" height="66" viewBox="-1 -1 66 66" x="369.48" y="239.93" xmlns="http://www.w3.org/2000/svg"><defs><style>.abcls-1{fill:#2f5572}</style></defs><path class="abcls-1" d="M.72.08A.67.67 0 0 0 0 .8v46.48a.72.72 0 0 0 .72.72H48l16 16V.72a.67.67 0 0 0-.72-.72H.8z"/></svg><svg id="css" data-name="Layer 1" viewBox="-1 -1 49.13 68" width="49.13" height="68" x="320.35" xmlns="http://www.w3.org/2000/svg"><defs><style>.accls-1{fill:#d59541}.accls-2{fill:#fff}.accls-3{fill:url(#aclinear-gradient)}.accls-4,.accls-5{opacity:.05;isolation:isolate}.accls-5{fill:#3c9cd7}</style><linearGradient id="aclinear-gradient" x1="-375.32" y1="121.52" x2="-375.32" y2="115.87" gradientTransform="matrix(1 0 0 -1 385.4 156.06)" gradientUnits="userSpaceOnUse"><stop offset=".39" stop-color="#d1d3d4" stop-opacity="0"/><stop offset="1" stop-color="#d1d3d4"/></linearGradient></defs><path class="accls-1" d="M0 13l4.42 47.86L23.56 66l19.14-5.15L47.13 13zm37.64 15.5l-14.09 6h13.59l-1.56 18L23.57 56l-12.09-3.6-.77-9h5.95l.4 4.6 6.41 1.64h.06l6.64-1.88.46-7.52-20.16-.08h-.16l-.46-5.63 13.7-5.71.8-.33h-15l-.72-5.78h29.59zM12.69 6V3.12h4.16V0H9.59v8.81h7.26V6zM24.33 3.12h2.91V0H20v3.12c1 1 1.48 1.43 2.88 2.85H20v2.84h7.28V6zm10.3 0h2.91V0h-7.28v3.12c1 1 1.48 1.43 2.89 2.85h-2.89v2.84h7.28V6z"/><path class="accls-2" d="M10.32 40.17l-.46-5.65z"/><path class="accls-3" d="M10.32 40.17l-.46-5.65z"/><path class="accls-4" d="M10.32 40.17l-.46-5.65zm.39 3.19l.77 9-.78-9zm12.83 6.29zM11.48 52.4L23.54 56z"/><path class="accls-5" d="M23.54 34.53h13.59l-1.56 17.93-12 3.54-12.09-3.6-.77-9h5.94l.4 4.68 6.41 1.64h.05l6.64-1.88.46-7.52-20.16-.08h-.16l-.46-5.63 13.7-5.71.81-.33h-15l-.74-5.85h29.61l-.57 5.78z"/></svg><svg data-name="Layer 1" viewBox="-1 -1 150.31 20.23" width="150.31" height="20.23" id="csstricks" xmlns="http://www.w3.org/2000/svg"><path d="M87.8 15.2c-1-1.3-2-2.6-3.1-4a10.19 10.19 0 0 0 1.5-.8 4.91 4.91 0 0 0 2.1-2.8A5.36 5.36 0 0 0 83.4.4h-.7C80.5.3 78.2.3 75.9.3a3.63 3.63 0 0 0-1.7.7v15.2c0 1.2.4 1.7 1.4 1.6a7.38 7.38 0 0 0 1.2-.2c1-1.7 0-3.9.6-5.8h3.7c1.3 1.7 2.7 3.5 4.1 5.2.5.7.9.9 1.4.9a5.79 5.79 0 0 0 1.3-.4c.6-1.3.6-1.3-.1-2.3zm-4.7-6.4c-1.8.2-3.7.2-5.7.3v-6l6 .2A2.59 2.59 0 0 1 85.5 6a2.73 2.73 0 0 1-2.4 2.8zm48.8 9c-.4 0-1 .1-1.6.1-2.1-2.6-4.1-5.2-6.2-7.8-1 .9-1.9 1.8-2.9 2.7v3c0 1.9-.6 2.3-2.7 1.7a7.49 7.49 0 0 1-.4-1.6V2c0-1.9 1.1-2.4 3-1.2v8.1a7.61 7.61 0 0 0 1.2-1c2.2-2.2 4.5-4.5 6.7-6.8 1.2-1.2 2.1-1.4 2.8-.6s.5 1.5-.7 2.7c-1.5 1.6-3 3.2-4.6 5 .7.9 1.7 2.1 2.6 3.2s2 2.4 2.9 3.7c.7 1 .8 1.8-.1 2.7zm4-4.8c.8.5 1.3.8 1.8 1.1a8 8 0 0 0 4.3 1.3 4.67 4.67 0 0 0 1.7-.3 2.08 2.08 0 0 0 1.4-1.9 1.87 1.87 0 0 0-1.2-1.8c-.9-.4-1.9-.6-2.8-.9s-1.9-.5-2.8-.9a4.24 4.24 0 0 1-2.9-4.2 4.63 4.63 0 0 1 2.8-4.6c2.5-1.2 7.2-.7 9.4 1.7-.2.4-.2 1.2-.6 1.6-.6.6-1.3.4-2-.1a6 6 0 0 0-4.3-1.1 4 4 0 0 0-1.9 1.1 1.67 1.67 0 0 0 .7 2.6 23.07 23.07 0 0 0 2.8 1c1.1.4 2.3.7 3.4 1.2a4 4 0 0 1 2.6 4.2 4.61 4.61 0 0 1-2.7 4.4 8.17 8.17 0 0 1-6.5.3 18.67 18.67 0 0 1-3.2-1.5c-.6-.3-1.2-.9-.9-1.6-.2-.6.4-1 .9-1.6zM33.7 15.6V14a1.71 1.71 0 0 1 2.6-.1 6.63 6.63 0 0 0 4.5 1.5 4.67 4.67 0 0 0 1.7-.3 2 2 0 0 0 1.4-1.9 1.87 1.87 0 0 0-1.3-1.9c-.9-.3-1.9-.6-2.8-.9s-1.9-.6-2.8-.9a4.33 4.33 0 0 1-2.9-4.1A4.68 4.68 0 0 1 36.6.9c2.4-1.4 6.9-1 9.1.8a1.26 1.26 0 0 1 .4 1.9 1.43 1.43 0 0 1-1.9.6c-.6-.2-1.1-.7-1.7-.8a22.06 22.06 0 0 0-3.7-.4 1.93 1.93 0 0 0-1.7 1.8 1.78 1.78 0 0 0 1.3 2 24.13 24.13 0 0 0 2.5.8c.9.3 1.9.5 2.8.9 2.2.9 3.2 2.4 3.1 4.5a4.81 4.81 0 0 1-3.7 4.7c-3.3 1-6.5.1-9.4-2.1zM29.1 4.4l-1.8-.9a5.58 5.58 0 0 0-3.8-.5 2.12 2.12 0 0 0-1.8 1.7 1.91 1.91 0 0 0 1.4 2.2c.8.3 1.7.5 2.5.8 1 .3 2.1.6 3.1 1a4.12 4.12 0 0 1 2.7 4.1 4.73 4.73 0 0 1-2.7 4.6c-3 1.5-7.5.8-10.6-1.8V14c.4-.2.8-.4 1.3-.7.5.3 1 .5 1.5.8a6.89 6.89 0 0 0 4.6 1.3 4.24 4.24 0 0 0 1.9-.6 1.88 1.88 0 0 0 0-3.3 15.71 15.71 0 0 0-2.3-.9c-1.2-.4-2.4-.7-3.6-1.1a4.12 4.12 0 0 1-2.9-4.2A4.63 4.63 0 0 1 21.4.7a8.86 8.86 0 0 1 7.3.2 4.67 4.67 0 0 1 1 .5c.7.4 1.2.8 1.1 1.7s-.7 1.2-1.7 1.3zM108.3 0a9.65 9.65 0 0 1 5.7 1.8 1.51 1.51 0 0 1 .2 2.6c-.7.5-1.3.2-2-.2a14.34 14.34 0 0 0-3.4-1.4 5.46 5.46 0 0 0-5.8 3.5 6.7 6.7 0 0 0 1.5 7.5 5.85 5.85 0 0 0 7 .6c.5-.3.9-.7 1.4-1a1.28 1.28 0 0 1 1.8.3 1.27 1.27 0 0 1 0 1.8 2.7 2.7 0 0 1-.8.7 9.4 9.4 0 0 1-10.3.5 9 9 0 0 1-4.2-8.9c.6-4 2.9-6.8 6.7-7.7a19.42 19.42 0 0 0 2.2-.1zM8.9 18.2A8.69 8.69 0 0 1 0 9.5 8.85 8.85 0 0 1 8.6.1a10 10 0 0 1 6.3 1.7 1.53 1.53 0 0 1 .7 1.7c-.2.4-.6 1-1 1a3.74 3.74 0 0 1-1.8-.5 6 6 0 0 0-5.5-.9 5.69 5.69 0 0 0-4 5.1 6 6 0 0 0 2.6 6.1 5.76 5.76 0 0 0 6.3.2 8.34 8.34 0 0 0 1.2-.8 1.38 1.38 0 0 1 2.1.2c.6.6.4 1.5-.4 2.2a8.31 8.31 0 0 1-5.2 2.1zM70.6.4c1.1 1.8.6 2.7-1.2 2.8h-3.7c0 .6-.1 1.2-.1 1.7V16c0 1.8-.5 2.1-2.7 1.7a10.62 10.62 0 0 1-.4-1.9V3.1h-4c-1.2 0-1.8-.7-1.7-1.6A1.22 1.22 0 0 1 58 .3c4.3.1 8.5.1 12.6.1zm21.9.5c1.7-1.1 2.9-.6 2.9 1.2v14q0 1.8-1.5 1.8c-1 .1-1.6-.5-1.6-1.7V1.6a1.45 1.45 0 0 0 .2-.7zM56.1 11.6H51c-1 0-1.5-.5-1.5-1.4s.4-1.4 1.5-1.4c1.5-.1 2.9 0 4.4 0a1.68 1.68 0 0 1 1.7.9 1.53 1.53 0 0 1-1 1.9z"/></svg><svg id="facebook" data-name="Layer 1" width="23.23" height="44.01" viewBox="-1 -1 23.23 44.01" x="320.35" y="224.01999999999998" xmlns="http://www.w3.org/2000/svg"><defs><style>.aecls-1{fill:#fff}</style></defs><path class="aecls-1" d="M21.23.31V7H17.4a3.55 3.55 0 0 0-2.85.91 4.26 4.26 0 0 0-.74 2.72v4.77H21l-1 7.47h-6.19V42H6.27V22.85H0v-7.47h6.27V9.85q0-4.69 2.55-7.28A9 9 0 0 1 15.63 0a39.57 39.57 0 0 1 5.6.31z"/></svg><svg id="fire" data-name="Layer 1" width="58" height="66" viewBox="-1 -1 58 66" x="194" y="310.09000000000003" xmlns="http://www.w3.org/2000/svg"><defs><style>.afcls-1{fill:#d4953d}</style></defs><path class="afcls-1" d="M16 0C24 16 0 24 0 40s16 24 16 24C8.16 48.16 32 40 32 24S16 0 16 0zm24 24c8 16-16 24-16 40h24c3.2 0 8-4 8-16 0-16-16-24-16-24z"/></svg><svg id="frontendfocus" data-name="Layer 1" viewBox="-1 -1 146.54 17.28" width="146.54" height="17.28" y="61.370000000000005" xmlns="http://www.w3.org/2000/svg"><defs><style>.agcls-1{fill:#f06529}</style></defs><path class="agcls-1" d="M2.72 31.54v-15h10.14v1.78H4.71v4.65h7.06v1.78H4.71v6.83zM15.19 31.54V20.65h1.66v1.65A4.54 4.54 0 0 1 18 20.77a2 2 0 0 1 1.18-.37 3.66 3.66 0 0 1 1.9.59l-.64 1.72a2.6 2.6 0 0 0-1.35-.4 1.78 1.78 0 0 0-1.09.36 2 2 0 0 0-.69 1 7.4 7.4 0 0 0-.3 2.15v5.71zM21.52 26.09a5.61 5.61 0 0 1 1.68-4.48 5.06 5.06 0 0 1 3.42-1.21 4.9 4.9 0 0 1 3.68 1.47 5.6 5.6 0 0 1 1.42 4.07 7.17 7.17 0 0 1-.63 3.3 4.45 4.45 0 0 1-1.84 1.88 5.38 5.38 0 0 1-2.63.66 4.91 4.91 0 0 1-3.69-1.46 5.87 5.87 0 0 1-1.41-4.23zm1.9 0a4.61 4.61 0 0 0 .91 3.13 3 3 0 0 0 4.58 0 4.75 4.75 0 0 0 .91-3.22 4.49 4.49 0 0 0-.91-3 3 3 0 0 0-2.29-1 2.92 2.92 0 0 0-2.29 1 4.62 4.62 0 0 0-.91 3.09zM33.88 31.54V20.65h1.67v1.54A3.92 3.92 0 0 1 39 20.4a4.64 4.64 0 0 1 1.81.35 3 3 0 0 1 1.24.93 3.61 3.61 0 0 1 .57 1.37 10.43 10.43 0 0 1 .1 1.79v6.7h-1.83v-6.63a4.75 4.75 0 0 0-.22-1.68 1.8 1.8 0 0 0-.76-.9 2.48 2.48 0 0 0-1.29-.33 3 3 0 0 0-2 .75 3.69 3.69 0 0 0-.86 2.84v5.95zM49.59 29.88l.27 1.63a6.81 6.81 0 0 1-1.39.17 3.18 3.18 0 0 1-1.56-.32 1.78 1.78 0 0 1-.78-.83 6.64 6.64 0 0 1-.23-2.18v-6.27h-1.35v-1.43h1.35V18l1.84-1.11v3.81h1.85v1.43h-1.85v6.37a3.41 3.41 0 0 0 .09 1 .86.86 0 0 0 .32.36 1.23 1.23 0 0 0 .63.14 5.75 5.75 0 0 0 .81-.12zM58.85 28l1.91.23a4.68 4.68 0 0 1-1.67 2.6 5.07 5.07 0 0 1-3.12.92 5 5 0 0 1-3.79-1.47 5.77 5.77 0 0 1-1.4-4.13 6 6 0 0 1 1.42-4.26 4.78 4.78 0 0 1 3.67-1.52 4.69 4.69 0 0 1 3.57 1.49 5.9 5.9 0 0 1 1.38 4.18v.49h-8.13a4.19 4.19 0 0 0 1 2.75 3 3 0 0 0 2.27 1 2.76 2.76 0 0 0 1.73-.53A3.49 3.49 0 0 0 58.85 28zm-6.06-3h6.08a3.72 3.72 0 0 0-.69-2 2.83 2.83 0 0 0-2.29-1.06 2.93 2.93 0 0 0-2.14.85 3.35 3.35 0 0 0-.96 2.26zM63.08 31.54V20.65h1.66v1.54a3.92 3.92 0 0 1 3.46-1.79 4.64 4.64 0 0 1 1.81.35 2.9 2.9 0 0 1 1.24.93 3.61 3.61 0 0 1 .57 1.37 10.15 10.15 0 0 1 .11 1.79v6.7h-1.85v-6.63a5 5 0 0 0-.21-1.68 1.82 1.82 0 0 0-.77-.9 2.43 2.43 0 0 0-1.29-.33 3 3 0 0 0-2 .75 3.69 3.69 0 0 0-.86 2.84v5.95zM81.82 31.54v-1.38a3.38 3.38 0 0 1-3 1.62 4.28 4.28 0 0 1-2.4-.72 4.63 4.63 0 0 1-1.69-2 6.92 6.92 0 0 1-.6-3 7.8 7.8 0 0 1 .54-3 4.28 4.28 0 0 1 4.06-2.74 3.63 3.63 0 0 1 1.76.42 3.54 3.54 0 0 1 1.21 1.16v-5.4h1.83v15zM76 26.1a4.71 4.71 0 0 0 .88 3.13 2.65 2.65 0 0 0 2.08 1 2.62 2.62 0 0 0 2.06-1 4.54 4.54 0 0 0 .84-3A5.16 5.16 0 0 0 81 23a2.65 2.65 0 0 0-2.12-1 2.56 2.56 0 0 0-2.06 1 5 5 0 0 0-.82 3.1zM92.61 31.54v-15h10.14v1.78H94.6v4.65h7.05v1.78H94.6v6.83zM104.41 26.09a5.61 5.61 0 0 1 1.68-4.48 5.06 5.06 0 0 1 3.43-1.21 4.9 4.9 0 0 1 3.67 1.47 5.6 5.6 0 0 1 1.42 4.07 7.17 7.17 0 0 1-.63 3.3 4.48 4.48 0 0 1-1.83 1.88 5.4 5.4 0 0 1-2.63.66 4.92 4.92 0 0 1-3.7-1.46 5.87 5.87 0 0 1-1.41-4.23zm1.9 0a4.61 4.61 0 0 0 .91 3.13 3 3 0 0 0 4.58 0 4.74 4.74 0 0 0 .92-3.19 4.49 4.49 0 0 0-.92-3.03 3.05 3.05 0 0 0-4.58 0 4.62 4.62 0 0 0-.91 3.09zM123.88 27.55l1.82.23a4.72 4.72 0 0 1-1.53 2.94 4.39 4.39 0 0 1-3 1.06 4.69 4.69 0 0 1-3.6-1.46 6 6 0 0 1-1.36-4.19 7.55 7.55 0 0 1 .59-3.08 4 4 0 0 1 1.78-2 5.26 5.26 0 0 1 2.6-.66 4.51 4.51 0 0 1 2.9.9 4.09 4.09 0 0 1 1.44 2.55l-1.79.27a3 3 0 0 0-.91-1.65 2.33 2.33 0 0 0-1.57-.55 2.86 2.86 0 0 0-2.27 1 4.73 4.73 0 0 0-.87 3.16 4.91 4.91 0 0 0 .84 3.19 2.74 2.74 0 0 0 2.19 1 2.61 2.61 0 0 0 1.86-.66 3.3 3.3 0 0 0 .88-2.05zM134.41 31.54v-1.6a4 4 0 0 1-3.41 1.84 4.36 4.36 0 0 1-1.8-.37 2.84 2.84 0 0 1-1.24-.93 3.43 3.43 0 0 1-.57-1.36 9.13 9.13 0 0 1-.11-1.73v-6.74h1.84v6a11.25 11.25 0 0 0 .11 1.94 2 2 0 0 0 .74 1.15 2.34 2.34 0 0 0 1.4.41 3.1 3.1 0 0 0 1.56-.42 2.46 2.46 0 0 0 1-1.16 5.88 5.88 0 0 0 .3-2.13v-5.79h1.84v10.89zM138.22 28.29L140 28a2.58 2.58 0 0 0 .86 1.68 3 3 0 0 0 2 .58 2.92 2.92 0 0 0 1.89-.51 1.56 1.56 0 0 0 .62-1.22 1.12 1.12 0 0 0-.55-1 7.48 7.48 0 0 0-1.88-.63 16.72 16.72 0 0 1-2.82-.89 2.68 2.68 0 0 1-1.19-1 2.74 2.74 0 0 1-.4-1.46 2.81 2.81 0 0 1 .33-1.35 2.9 2.9 0 0 1 .91-1 3.88 3.88 0 0 1 1.17-.54 5.53 5.53 0 0 1 1.6-.22 6.24 6.24 0 0 1 2.25.37 3.14 3.14 0 0 1 1.43 1 3.91 3.91 0 0 1 .63 1.69l-1.8.24a2 2 0 0 0-.72-1.31 2.55 2.55 0 0 0-1.66-.47 3 3 0 0 0-1.82.42 1.23 1.23 0 0 0-.54 1 1 1 0 0 0 .23.65 1.59 1.59 0 0 0 .7.49c.19.07.73.23 1.63.47a23.4 23.4 0 0 1 2.74.86 2.71 2.71 0 0 1 1.21 1 2.65 2.65 0 0 1 .44 1.58 3.07 3.07 0 0 1-.54 1.73 3.4 3.4 0 0 1-1.55 1.27 5.79 5.79 0 0 1-2.3.44 5.09 5.09 0 0 1-3.23-.88 4.09 4.09 0 0 1-1.42-2.7z" transform="translate(-2.72 -16.5)"/></svg><svg data-name="Layer 1" viewBox="-1 -1 102 99.53" width="102" height="99.53" id="github" x="150.31" xmlns="http://www.w3.org/2000/svg"><path d="M50 0a50 50 0 0 0-15.81 97.44c2.5.43 3.43-1.06 3.43-2.38s-.06-5.12-.06-9.31C25 88.06 21.75 82.69 20.75 79.88c-.56-1.44-3-5.88-5.13-7.07-1.75-.93-4.25-3.25-.06-3.31 3.94-.06 6.75 3.63 7.69 5.13 4.5 7.56 11.69 5.43 14.56 4.12A10.53 10.53 0 0 1 41 72.06c-11.13-1.25-22.75-5.56-22.75-24.68a19.49 19.49 0 0 1 5.12-13.44c-.5-1.25-2.25-6.38.5-13.25 0 0 4.19-1.31 13.75 5.12a47.34 47.34 0 0 1 25 0c9.57-6.5 13.75-5.12 13.75-5.12 2.75 6.87 1 12 .5 13.25A19.34 19.34 0 0 1 82 47.38c0 19.18-11.69 23.43-22.81 24.68 1.81 1.57 3.37 4.57 3.37 9.25 0 6.69-.06 12.07-.06 13.75 0 1.32.94 2.88 3.44 2.38A50 50 0 0 0 50 0z"/></svg><svg id="globe" data-name="Layer 1" width="66" height="66" viewBox="-1 -1 66 66" x="369.48" y="123.93" xmlns="http://www.w3.org/2000/svg"><defs><style>.aicls-1{fill:#d4953f}</style></defs><path class="aicls-1" d="M32 0a32 32 0 1 0 32 32A32 32 0 0 0 32 0zm0 8a23.75 23.75 0 0 1 7.52 1.52c-1.68 1.6-3.6 3-3.28 4.48s5.52 1 5.52 4c0 2.16-3.36 2.8-1 5.28 2.8 2.8-5.12 7.84-5.28 11.52-.24 6.64 6.72 7.76 12.24 7.76 3.36 0 4.24 1.6 4 3.52a24.07 24.07 0 0 1-19.76 10 22.94 22.94 0 0 1-8.48-1.76c1.76-3.52-2.24-10.48-6-12.72-1.84-1.84-5.76-1.12-8-2a23.49 23.49 0 0 1-1.52-6.72 1.42 1.42 0 0 1 1.28-.72c1.52 0 3.6 3 4.72 2.72 1.4-.32-5.96-10.48-2.52-12.48 1.6-1 4.8 3.12 3.76-1.28-1-4.08 2.88-2.24 5.28-3.28 2.08-.88 3.6-3.28 1-4.72a8.55 8.55 0 0 1-1.76-1.52A23.75 23.75 0 0 1 32 8.08V8zm18.48 8.72A26.46 26.46 0 0 1 54 22.48v.24a11.78 11.78 0 0 1-1.76 1.76C50 26.72 49.68 22.8 48.72 22c-1-1-4.8.16-5.28-1-.56-1.48 4-3.4 7.04-4.28z"/></svg><svg id="gulp" data-name="Layer 1" viewBox="-1 -1 31.72 68" width="31.72" height="68" x="252.31" y="67.12" xmlns="http://www.w3.org/2000/svg"><defs><style>.ajcls-1{fill:#d59541}</style></defs><path class="ajcls-1" d="M22.93 64l.63-10.55 1.75-3a30.3 30.3 0 0 1-10.64 1.65 30.19 30.19 0 0 1-10.58-1.6l2 3.26L6.74 64c0 1.1 3.62 2 8.09 2s8.09-.89 8.09-2m-2-49.27l1.33-5.25 7.36-7.74L27.68.09l-7.79 8.25-1.54 6.28c-1.16 0-2.32-.06-3.49-.06C6.65 14.56 0 15.5 0 16.65s6.65 2.09 14.86 2.09 14.86-.94 14.86-2.09c0-.85-3.61-1.58-8.79-1.91"/><path class="ajcls-1" d="M20.16 17.68a6.07 6.07 0 0 1-1.13.07c-.85 0-1.45 0-1.69-.22a.36.36 0 0 1-.1-.25.34.34 0 0 1 .24-.29l.13.2c-.06 0-.09 0-.09.07a3.61 3.61 0 0 0 1.53.18c.66 0 1.46-.06 1.46-.18s-.06-.07-.17-.09l.13-.2c.17.05.32.16.32.33s-.39.35-.64.38m9.46-15.93c.19-.21-.1-.76-.63-1.22s-1.11-.66-1.3-.45.1.76.63 1.22 1.11.66 1.3.45m-7 36.48c-.17-1.68 3.67-4.11 2.68-4.19-2.12.12-3.18 2.49-4.25 5-.39.91-1.73 4.79-2.61 4.31s1.14-3.66 1.71-5.56c-.65.48-3 2.34-3.66.6-1 .84-3.11 1.3-2.87-.91-.53.93-1.71 2.24-3.13 1.7-1.87-.71 1.08-6.66 1.81-6.36s-.15 1.65-.38 2.18c-.51 1.16-1.09 2.61-.7 2.91.67.51 2.5-1.93 2.54-2 .34-.45 1.31-3.4 2.1-3.06s-2 4.24-.93 5c.21.16 1.05-.1 1.57-.65.33-.36.22-1.16 1.33-3.8s2.1-5.94 2.86-5.69.13 1.94-.14 2.57c-1.28 3-3.5 7.85-2.45 7.48a4.37 4.37 0 0 0 2.61-1.59c1-1.2 1-3.17 1.66-3.13s.57.67.4 1.16c.67-.77 3.18-2.38 3.79-.78C27.21 35.3 22.9 38 24 37.9a6.45 6.45 0 0 0 3.47-2.19l2-17.93s-2 1.66-14.77 1.66S.1 17.82.1 17.82l1.7 16.36c.9-2.56 3-7.74 6.41-7.57 1.53.08 3.58 3 1.83 3.13-.74 0-.82-1.47-1.7-1.7a2.67 2.67 0 0 0-2.09.96C5.11 30.06 2.66 34.46 3 36.65c.41 2.79 3.86-1 4.44-2.09.41-.79.69-3.12 1.59-2.88s-.08 2.65-.73 4.78c-.73 2.39-1.12 4.91-2 4.62s.58-3.38.52-3.92C5.92 38 4.33 40 2.3 39l1.05 10.16s2.8 2.21 11.24 2.21 11.35-2.17 11.35-2.17l1.31-11.77c-1.07 1-4.46 2.89-4.68.81"/></svg><svg id="html" data-name="Layer 1" viewBox="-1 -1 48.84 68" width="48.84" height="68" x="320.35" y="68" xmlns="http://www.w3.org/2000/svg"><defs><style>.akcls-1{fill:#d59541}</style></defs><path id="akfcode_html5" data-name="fcode html5" class="akcls-1" d="M10.07 3H7.33V0h-3v8.9h3v-3h2.74v3h3V0h-3zM31 0h-.29l-1.9 3L27 0h-3.08v8.9h2.91V4.48l2 3.2 2.1-3.32V8.9h2.91V0zM14.38 3H17v5.85h3V3h2.6V0h-8.22zm24 2.91V0h-3v8.9h7.16v-3h-4.16zM0 12.92l4.42 47.67 19 5.41 19-5.41 4.42-47.67zm37.66 15.66H15.19l.52 6h21.36L35.44 52.5l-12 3.37-12-3.37-.84-9.14h5.94L17 47.9l6.52 1.92L29.86 48l.7-7.57h-20.2v.1L8.67 22.64h29.51z"/></svg><svg id="illustrator" data-name="Layer 1" viewBox="-1 -1 68 66.35" width="68" height="66.35" x="252.31" y="135.12" xmlns="http://www.w3.org/2000/svg"><defs><style>.alcls-1{fill:#d59541}</style></defs><path class="alcls-1" d="M2.75 2.75h60.5V61.6H2.75zM0 64.35h66V0H0zm43.23-41.41c0-.22.08-.33.33-.33h4.32c.22 0 .33.08.33.33v21.7c0 .22-.05.33-.33.33h-4.26a.31.31 0 0 1-.36-.36V22.94zm-.3-6.24a2.81 2.81 0 0 1 5.61 0 2.62 2.62 0 0 1-2.44 2.8 2.94 2.94 0 0 1-.42 0 2.58 2.58 0 0 1-2.75-2.39 2.94 2.94 0 0 1 0-.42zM30.55 32c-.77-3-2.55-9.71-3.27-12.93h-.05c-.58 3.22-2 8.66-3.19 12.93zm-7.64 4.46l-2.17 8.25c0 .22-.14.27-.41.27h-4c-.27 0-.33-.08-.27-.41l7.81-27.34a8.78 8.78 0 0 0 .27-2.23c0-.19.08-.27.22-.27h5.78c.19 0 .27.05.33.27l8.69 29.6c.05.22 0 .36-.22.36h-4.57c-.22 0-.36-.05-.41-.25l-2.26-8.28h-8.8z"/></svg><svg id="instagram" data-name="Layer 1" width="44.01" height="44.01" viewBox="-1 -1 44.01 44.01" x="320.35" y="180.01" xmlns="http://www.w3.org/2000/svg"><defs><style>.amcls-1{fill:#fff}</style></defs><path class="amcls-1" d="M37.25 35.49V17.77h-3.69a11.77 11.77 0 0 1 .57 3.58 12.12 12.12 0 0 1-1.75 6.36 12.76 12.76 0 0 1-4.76 4.59 13.13 13.13 0 0 1-6.56 1.7 12.78 12.78 0 0 1-9.19-3.71 12 12 0 0 1-3.83-9 11.77 11.77 0 0 1 .49-3.56H4.68v17.76a1.63 1.63 0 0 0 1.6 1.67h29.3a1.63 1.63 0 0 0 1.17-.47 1.59 1.59 0 0 0 .5-1.2zm-7.77-14.57A7.75 7.75 0 0 0 27 15.14a8.28 8.28 0 0 0-6-2.4 8.25 8.25 0 0 0-5.91 2.39 7.75 7.75 0 0 0-2.47 5.78 7.75 7.75 0 0 0 2.47 5.79A8.25 8.25 0 0 0 21 29.1a8.28 8.28 0 0 0 6-2.4 7.75 7.75 0 0 0 2.48-5.78zm7.76-9.84V6.56a1.84 1.84 0 0 0-.54-1.31 1.8 1.8 0 0 0-1.31-.56h-4.78a1.8 1.8 0 0 0-1.31.56 1.84 1.84 0 0 0-.54 1.31v4.52A1.87 1.87 0 0 0 30.6 13h4.8a1.87 1.87 0 0 0 1.85-1.89zM42 5.39v31.23A5.41 5.41 0 0 1 36.62 42H5.39a5.19 5.19 0 0 1-3.8-1.59A5.19 5.19 0 0 1 0 36.62V5.39a5.19 5.19 0 0 1 1.59-3.8A5.19 5.19 0 0 1 5.39 0h31.23a5.19 5.19 0 0 1 3.8 1.59A5.19 5.19 0 0 1 42 5.39z"/></svg><svg id="javascript" data-name="Layer 1" viewBox="-1 -1 68 68" width="68" height="68" x="68" y="242.09" xmlns="http://www.w3.org/2000/svg"><defs><style>.ancls-1{fill:#d59541}</style></defs><path class="ancls-1" d="M0 0v66h66V0zm36 51.56c0 6.41-3.78 9.35-9.24 9.35a9.82 9.82 0 0 1-9.35-5.67l4.83-3.15c1.16 1.79 2.1 3.26 4.2 3.26s3.36-.84 3.36-3.89V30.4H36zm14.65 9.35c-5.78 0-9.56-2.73-11.34-6.3l5-3c1.37 2.21 3 3.78 6.09 3.78 2.63 0 4.2-1.26 4.2-3 0-2.1-1.68-2.84-4.52-4.1l-1.58-.63C44 45.77 41 43.35 41 38.31 41 33.6 44.59 30 50.11 30c4 0 6.83 1.37 8.82 4.94l-4.82 3.18c-1-1.89-2.21-2.63-4-2.63a2.69 2.69 0 0 0-2.93 2.43 1.34 1.34 0 0 0 0 .2c0 1.89 1.16 2.63 3.78 3.78l1.58.63c5.25 2.31 8.3 4.62 8.3 9.77 0 5.56-4.37 8.61-10.25 8.61z"/></svg><svg id="jquery" data-name="Layer 1" viewBox="-1 -1 68 67.31" width="68" height="67.31" x="136" y="242.09" xmlns="http://www.w3.org/2000/svg"><defs><style>.aocls-1{fill:#d59541}</style></defs><g id="aoj_Group_" data-name="j Group"><path class="aocls-1" d="M64.42 48.46l-.29.79c-5 9.79-14 15.77-26.64 16.06a38.32 38.32 0 0 1-15.34-3.1A39.44 39.44 0 0 1 3.79 44.86c-5.26-10.15-6.2-24.34 4.75-34.92.14 0-1.3 2.3-1.15 2.3l-.29 1C-.82 37.88 23.45 59 47.06 56.6a31 31 0 0 0 17.36-8.14zm.93-30.82c-.94 2.09-6.26 6.12-8.57 6.62-9.29 1.94-15.27-2.45-18.36-7.42A24.9 24.9 0 0 1 37 13.53C35.78 9.43 36.35 3.24 40 0a17 17 0 0 0-.65 8.93 20.57 20.57 0 0 0 2.45 5.4c1.94 2.81 3.17 3.46 5.62 5a15.54 15.54 0 0 0 2.81 1.37c2.23.54 7.13 2.3 15.12-3.06z"/><path class="aocls-1" d="M50.16 38.24A22.63 22.63 0 0 0 66 31.62C62.76 39.76 53.47 45 41 43.36 30.5 42 20.56 31.47 19.56 20.88c-.72-7.63 1.94-12.24 6.37-17.78a18.65 18.65 0 0 0-2.23 6.55c-1.77 16.63 13.14 28.51 26.46 28.59z"/></g></svg><svg id="link" data-name="Layer 1" viewBox="-1 -1 67.97 63.46" width="67.97" height="63.46" x="369.48" xmlns="http://www.w3.org/2000/svg"><defs><style>.apcls-1{fill:#00857a}</style></defs><path class="apcls-1" d="M34.87 26.34a1.85 1.85 0 0 0 0 2.6 7.67 7.67 0 0 1 0 10.85L19.15 55.53a7.68 7.68 0 0 1-10.85 0l-2.37-2.37a7.68 7.68 0 0 1 0-10.85l15.72-15.72a1.85 1.85 0 0 0 .29-2.6 1.87 1.87 0 0 0-2.61-.28A2.65 2.65 0 0 0 19 24L3.32 39.7a11.35 11.35 0 0 0 0 16l2.36 2.39a11.39 11.39 0 0 0 16.08 0l15.72-15.67a11.39 11.39 0 0 0 0-16.08 1.85 1.85 0 0 0-2.6 0z"/><path class="apcls-1" d="M62.66 5.69l-2.37-2.37a11.39 11.39 0 0 0-16.08 0L28.5 19a11.39 11.39 0 0 0 0 16.08 1.85 1.85 0 0 0 2.81-2.4l-.18-.18a7.68 7.68 0 0 1 0-10.85l15.7-15.72a7.68 7.68 0 0 1 10.85 0L60 8.29a7.67 7.67 0 0 1 0 10.85L44.33 34.87a1.85 1.85 0 0 0 1.3 3.13 1.82 1.82 0 0 0 1.3-.55l15.71-15.69a11.37 11.37 0 0 0 0-16.08z"/></svg><svg id="linkedin" data-name="Layer 1" viewBox="-1 -1 44.09 44.01" width="44.09" height="44.01" x="320.35" y="136" xmlns="http://www.w3.org/2000/svg"><defs><style>.aqcls-1{fill:#fff}</style></defs><path class="aqcls-1" d="M9.43 42H.7V14h8.73zM5.07 10.12a5.06 5.06 0 1 1 5-5.07 5 5 0 0 1-5 5.06zM42.09 42h-8.72V28.37c0-3.25-.06-7.44-4.53-7.44s-5.23 3.55-5.23 7.21V42H14.9V14h8.36v3.8h.12a9.14 9.14 0 0 1 8.25-4.53c8.83 0 10.46 5.81 10.46 13.36z"/></svg><svg id="linkedinlearning" data-name="Layer 1" viewBox="-1 -1 52 52" width="52" height="52" x="252" y="310.09000000000003" xmlns="http://www.w3.org/2000/svg"><defs><style>.arcls-1{fill:#007bb6}.arcls-2{fill:#fff}</style></defs><path class="arcls-1" d="M71.3 25H28.69A3.65 3.65 0 0 0 25 28.61v42.78A3.65 3.65 0 0 0 28.69 75H71.3a3.65 3.65 0 0 0 3.7-3.61V28.61A3.65 3.65 0 0 0 71.3 25z" transform="translate(-25 -25)"/><path class="arcls-2" d="M32.41 43.75h7.42v23.86h-7.42zm3.71-11.87a4.31 4.31 0 1 1-4.3 4.3 4.31 4.31 0 0 1 4.3-4.3M44.48 43.75h7.11V47h.1a7.79 7.79 0 0 1 7-3.86c7.51 0 8.9 4.94 8.9 11.37v13.1h-7.4V56c0-2.76 0-6.32-3.85-6.32s-4.45 3-4.45 6.13v11.8h-7.41z" transform="translate(-25 -25)"/></svg><svg id="logo" data-name="Layer 1" viewBox="-1 -1 101.09 53.64" width="101.09" height="53.64" x="100.6" y="140.18" xmlns="http://www.w3.org/2000/svg"><defs><style>.ascls-1{fill:#fff}</style></defs><path class="ascls-1" d="M8.17 37H4.55v8H0V23h8.17a9.27 9.27 0 0 1 6 1.74 6 6 0 0 1 2.12 4.92 6.83 6.83 0 0 1-1 3.76 6.66 6.66 0 0 1-3 2.4l4.77 9V45H12.3zm-3.62-3.73h3.62a3.76 3.76 0 0 0 2.65-.87 3.09 3.09 0 0 0 .94-2.4 3.32 3.32 0 0 0-.89-2.45 3.7 3.7 0 0 0-2.7-.9H4.55zm14.92-8.87a2.15 2.15 0 0 1 .7-1.62 2.83 2.83 0 0 1 3.58 0 2.31 2.31 0 0 1 0 3.25 2.81 2.81 0 0 1-3.58 0 2.16 2.16 0 0 1-.7-1.63zM24.12 45h-4.39V28.64h4.39zm8.23-16.36v17.27a5.89 5.89 0 0 1-1.44 4.21 5.46 5.46 0 0 1-4.15 1.51 9.25 9.25 0 0 1-2.16-.26v-3.46a8.07 8.07 0 0 0 1.38.14c1.33 0 2-.7 2-2.1V28.64zm-4.74-4.24a2.14 2.14 0 0 1 .66-1.62 2.85 2.85 0 0 1 3.59 0 2.31 2.31 0 0 1 0 3.25 2.8 2.8 0 0 1-3.56 0 2.18 2.18 0 0 1-.69-1.63zm14.11 14.05L40.17 40v5h-4.4V21.77h4.4v12.88l.83-1.09 4.15-4.92h5.25l-5.9 6.83L51 45h-5zm19.45 2a1.41 1.41 0 0 0-.79-1.26 8.75 8.75 0 0 0-2.55-.82Q52 37.18 52 33.41a4.5 4.5 0 0 1 1.81-3.64 7.31 7.31 0 0 1 4.73-1.46 7.83 7.83 0 0 1 5 1.47 4.63 4.63 0 0 1 1.87 3.81H61a2.09 2.09 0 0 0-.57-1.59 2.55 2.55 0 0 0-1.89-.61 2.61 2.61 0 0 0-1.71.5 1.56 1.56 0 0 0-.61 1.27 1.35 1.35 0 0 0 .69 1.17 7.05 7.05 0 0 0 2.32.77 18.69 18.69 0 0 1 2.76.73q3.46 1.27 3.47 4.41a4.27 4.27 0 0 1-1.92 3.63 8.3 8.3 0 0 1-5 1.38 8.53 8.53 0 0 1-3.66-.73 6 6 0 0 1-2.5-2 4.66 4.66 0 0 1-.91-2.76h4.15a2.26 2.26 0 0 0 .86 1.79 3.43 3.43 0 0 0 2.15.62 3.18 3.18 0 0 0 1.9-.48 1.47 1.47 0 0 0 .64-1.2zm14.64 4.83a8 8 0 0 1-5.87-2.21 7.88 7.88 0 0 1-2.26-5.89v-.38a9.89 9.89 0 0 1 1-4.41 7 7 0 0 1 2.7-3 7.61 7.61 0 0 1 4-1.05 6.8 6.8 0 0 1 5.29 2.12 8.59 8.59 0 0 1 1.93 6v1.79H72.12a4 4 0 0 0 1.28 2.57 3.84 3.84 0 0 0 2.7 1 4.72 4.72 0 0 0 4-1.83l2.07 2.38a6.53 6.53 0 0 1-2.66 2.17 8.72 8.72 0 0 1-3.7.78zm-.5-13.46a2.72 2.72 0 0 0-2.11.88 4.58 4.58 0 0 0-1 2.52h6.08v-.35a3.28 3.28 0 0 0-.79-2.26 2.83 2.83 0 0 0-2.18-.75zm13.74-3.22l.14 1.89a5.72 5.72 0 0 1 4.71-2.2 4.74 4.74 0 0 1 3.88 1.53 7.16 7.16 0 0 1 1.3 4.57V45h-4.37V34.54a2.83 2.83 0 0 0-.61-2 2.71 2.71 0 0 0-2-.63 3 3 0 0 0-2.77 1.57V45H85V28.64zM35.67 3.46h-5.5v15.29h-3.11V3.46h-5.49V1h14.1zm5 3.54a4.63 4.63 0 0 1 3.67-1.68q4.21 0 4.28 4.82v8.63h-3v-8.54A2.6 2.6 0 0 0 45 8.3a2.4 2.4 0 0 0-1.74-.57 2.85 2.85 0 0 0-2.66 1.59v9.44h-3V0h3zm16.74 12a6.15 6.15 0 0 1-4.57-1.78 6.46 6.46 0 0 1-1.75-4.73v-.37a8 8 0 0 1 .76-3.53A5.82 5.82 0 0 1 54 6.17a5.68 5.68 0 0 1 3.08-.87A5.18 5.18 0 0 1 61.24 7a7.28 7.28 0 0 1 1.47 4.87v1.2h-8.63a4 4 0 0 0 1.09 2.6 3.3 3.3 0 0 0 2.41 1A4 4 0 0 0 60.9 15l1.6 1.53a5.31 5.31 0 0 1-2.12 1.84 6.62 6.62 0 0 1-2.97.63zm-.35-11.32a2.5 2.5 0 0 0-2 .85 4.48 4.48 0 0 0-1 2.38h5.65v-.22a3.61 3.61 0 0 0-.79-2.25 2.5 2.5 0 0 0-1.86-.76zm7.4 4.32a7.71 7.71 0 0 1 .77-3.5 5.61 5.61 0 0 1 2.16-2.39 6.11 6.11 0 0 1 3.2-.84A5.77 5.77 0 0 1 74.92 7a6.79 6.79 0 0 1 1.8 4.57v.7a7.92 7.92 0 0 1-.72 3.49 5.5 5.5 0 0 1-2.15 2.38 6.21 6.21 0 0 1-3.23.84 5.73 5.73 0 0 1-4.42-1.85 7.12 7.12 0 0 1-1.68-5zm3 .26a5.29 5.29 0 0 0 .84 3.19 2.75 2.75 0 0 0 2.34 1.15A2.69 2.69 0 0 0 73 15.43a5.88 5.88 0 0 0 .8-3.43 5.24 5.24 0 0 0-.86-3.17 2.9 2.9 0 0 0-4.06-.58 2.66 2.66 0 0 0-.58.58 5.82 5.82 0 0 0-.86 3.45z"/></svg><svg id="lynda" data-name="Layer 1" viewBox="-1 -1 100.6 101.91" width="100.6" height="101.91" y="140.18" xmlns="http://www.w3.org/2000/svg"><defs><style>.atcls-1{fill:#fff}</style></defs><g id="atnlynda.com_logo_1_primary_logo_" data-name="nlynda.com logo 1 primary logo"><path d="M0 82.06h2.52v14.19H0zm3.66 3.85h2.75l2.75 6.41 3-6.41h2.75l-6.44 14H5.72l2.06-4.58zm12.34 0h2.52v1.14c.69-.46 1.14-.92 1.6-.92a2.89 2.89 0 0 1 1.39-.22A3.54 3.54 0 0 1 25 89.54V96.44h-2.57v-4.53a7.14 7.14 0 0 0-.23-2.52 1.22 1.22 0 0 0-.46-.92 1.32 1.32 0 0 0-.92-.23 3.19 3.19 0 0 0-1.37.46 2 2 0 0 0-.69 1.37v6.18h-2.51V85.91zm19.24-3.85h2.52v14.19h-2.52V95.1a2.35 2.35 0 0 1-1.6.92 4.15 4.15 0 0 1-1.6.23 4.15 4.15 0 0 1-3.43-1.6 6.2 6.2 0 0 1 0-7.78A4.85 4.85 0 0 1 32 85.26c.69 0 1.14.23 1.83.23a6.87 6.87 0 0 1 1.6 1.14v-4.57zm-2.75 6a2.75 2.75 0 0 0-2.06.92 3.19 3.19 0 0 0-.69 2.02 3 3 0 0 0 .92 2.29 2.25 2.25 0 0 0 2.06.92 2.49 2.49 0 0 0 2.06-.92 3.44 3.44 0 0 0 .69-2.29 2.82 2.82 0 0 0-.69-2.08 3.67 3.67 0 0 0-2.29-.92zm15.34-2.1h2.52v10.3h-2.52V95.1a2.35 2.35 0 0 1-1.6.92 4.76 4.76 0 0 1-5-1.37 6.2 6.2 0 0 1 0-7.78 4.85 4.85 0 0 1 3.43-1.6c.69 0 1.14.23 1.83.23a6.87 6.87 0 0 1 1.6 1.14v-.73zM45.08 88a2.79 2.79 0 0 0-2.08.9 3.19 3.19 0 0 0-.69 2.1 3 3 0 0 0 .92 2.29 2.25 2.25 0 0 0 2.06.92 2.49 2.49 0 0 0 2.06-.92A3.44 3.44 0 0 0 48 91a2.81 2.81 0 0 0-.67-2.06 2.94 2.94 0 0 0-2.25-.94zm8.7 6.41c-.23.23-.23.46-.23.92a1.43 1.43 0 0 0 .23.92c.23.23.46.23.92.23a1.43 1.43 0 0 0 .92-.23c.23-.23.23-.46.23-.92a1.41 1.41 0 0 0-.23-.92c-.23-.23-.46-.23-.92-.23a1.32 1.32 0 0 0-.92.24zM68.42 88l-1.14.69a4.43 4.43 0 0 0-3.66-1.79 5.47 5.47 0 0 0-3.2 1.14 3.78 3.78 0 0 0-1.14 3 6.69 6.69 0 0 0 .46 2.06 5.42 5.42 0 0 0 1.6 1.6 3.82 3.82 0 0 0 2.29.46 4.48 4.48 0 0 0 3.66-1.83l1.14.69a5.5 5.5 0 0 1-2.06 1.83 6.12 6.12 0 0 1-2.75.69 5.52 5.52 0 0 1-4.12-1.64 4.55 4.55 0 0 1-1.6-3.66 6.12 6.12 0 0 1 .69-2.75 4.47 4.47 0 0 1 2.06-2.06 7.56 7.56 0 0 1 5-.46 10.29 10.29 0 0 1 1.6.69A6 6 0 0 1 68.42 88zM76 85.72a4.68 4.68 0 0 1 3.89 1.6A5.57 5.57 0 0 1 81.26 91a4.55 4.55 0 0 1-1.6 3.66 4.74 4.74 0 0 1-3.89 1.6 5 5 0 0 1-3.89-1.6 5.91 5.91 0 0 1-1.6-3.66 5.16 5.16 0 0 1 1.37-3.66A6.39 6.39 0 0 1 76 85.72zm0 1.19a3.79 3.79 0 0 0-2.75 1.14 4.85 4.85 0 0 0-1.14 3 6.69 6.69 0 0 0 .46 2.06 4 4 0 0 0 1.37 1.37 3.44 3.44 0 0 0 2.06.43 6.89 6.89 0 0 0 2-.49 4 4 0 0 0 1.37-1.37 3.38 3.38 0 0 0 .46-2.05 4.85 4.85 0 0 0-1.14-3A4.74 4.74 0 0 0 76 86.91zm7.52-1h1.38v1.83a3.83 3.83 0 0 1 1.37-1.37 3.71 3.71 0 0 1 2.06-.69 2.8 2.8 0 0 1 1.37.23 5.1 5.1 0 0 1 1.14.69 3.69 3.69 0 0 1 .69 1.4 4.18 4.18 0 0 1 1.6-1.83 3.71 3.71 0 0 1 2.06-.69 4.22 4.22 0 0 1 1.81.46 4.06 4.06 0 0 1 1.14 1.6 9 9 0 0 1 .46 3V96h-1.35v-5.47a5.72 5.72 0 0 0-.25-2.29 3.13 3.13 0 0 0-.69-.92 1.7 1.7 0 0 0-1.12-.41 5.3 5.3 0 0 0-1.83.46 4 4 0 0 0-1.14 1.54 9.37 9.37 0 0 0-.46 3.2V96h-1.37v-5.24a7.14 7.14 0 0 0-.23-2.52 3.92 3.92 0 0 0-.92-1.14 2.27 2.27 0 0 0-.92-.23 3.26 3.26 0 0 0-1.6.46 6 6 0 0 0-1.14 1.37 8.53 8.53 0 0 0-.46 2.75v4.35h-1.37v-9.89z"/><circle id="atnwhite_background" data-name="nwhite background" class="atcls-1" cx="49.66" cy="39.5" r="38.67"/><path d="M86 24.17a39.48 39.48 0 1 0-51.71 51.72A39.5 39.5 0 0 0 86 54.83a39.1 39.1 0 0 0 3.2-15.33A38.3 38.3 0 0 0 86 24.17zM23.57 50.25l-5.95-5.72 1.38-.46a7.15 7.15 0 0 1 2.06.69 8.11 8.11 0 0 1 2.05 1.15 6.44 6.44 0 0 1 .69 3.43v.92l.69-.69a10.74 10.74 0 0 1 4.12-2.29c.92-.23 3.2-.46 6.64-.92l5.25-.45 1.14.92zm37.53 6.87c-.69-1.83-1.37-3.66-1.83-5.26-.46-1.83-.46-3-.23-3.43a11.6 11.6 0 0 0 1.6-1.83.22.22 0 0 1 .21-.23l5.26 6.86zm-2.75-15.56c2.06-1.83 3.2-2.75 3.66-3.2.92-.92 2.52-2.75 4.58-5.26-5.49 4.11-8.7 6.4-10.07 6.81l-1.14.46a2.64 2.64 0 0 1-1.14.23 12.12 12.12 0 0 1-3.89-.23 4 4 0 0 1-3-2.29 9.76 9.76 0 0 0-.46-1.6c-.23-.69-.23-1.37-.46-1.6a13.05 13.05 0 0 1-.92-1.83l-1.14-2.29a21.56 21.56 0 0 1-1.58-6.85H43a3.49 3.49 0 0 0 2.52-.91l.46-.46.69-2.06a1.61 1.61 0 0 1 1.8-1.38c1.14 0 1.6.46 1.83 1.14v.46a2.45 2.45 0 0 0 1.14 2.06 4.81 4.81 0 0 0 2.53.95 3.49 3.49 0 0 0 2.52-.92c.69-.69 1.14-1.14 1.14-2.06H59v-.92h-1.6a3.92 3.92 0 0 0-.92-1.14 4.75 4.75 0 0 0-2.48-.91 3.41 3.41 0 0 0-2.52.92l-.69.69-.23-.23a4 4 0 0 0-2.29-.92 2.22 2.22 0 0 0-2.06.92l-.23.23c-.23-.23-.23-.46-.69-.69a4.24 4.24 0 0 0-2.06-.92c1.37-3.66 4.58-7.32 9.38-11.21 2.29 6.18 6.18 10.3 11.21 12.13.23.23.23.69.46 1.14v.23h-3.64V21h4.12a.22.22 0 0 0 .21.23 3 3 0 0 1-.46 2.71l-.92 1.37a2.8 2.8 0 0 0-.23 1.37c0 .23.46.69.92.92a1.71 1.71 0 0 1 .46 1.14c1.14-.23 1.6-.92 1.14-1.6a1.52 1.52 0 0 1 .23-1.37l.23-.69v-.23c.46-.92.92-1.6 1.14-2.06v-.49a1.24 1.24 0 0 0-.69-1.14H68c1.14 1.14 1.37 3 .69 5.72 0 1.6-.23 2.51-.69 2.75a1.92 1.92 0 0 1-1.83-.46V45h8l1.14 1.6-9.15 6.18zM42.11 21.19c0 .23.23.23.69.23.23 0 .23 0 .46-.23l.23-.23h2.29c0 .46-.46.69-.92 1.14a2.87 2.87 0 0 1-2.06.69 3.71 3.71 0 0 1-2.06-.69c-.46-.46-.92-.92-.92-1.37a1.41 1.41 0 0 1 .92-1.37 2.79 2.79 0 0 1 2.06-.69 3.71 3.71 0 0 1 2.06.69c.46.23.69.46.69.92h-4.13v.92zm11 0c0 .23.23.23.69.23s.46 0 .69-.23h2.06c0 .46-.23.69-.69 1.14a6.92 6.92 0 0 1-2.06.46 3.19 3.19 0 0 1-2.06-.69c-.46-.46-.92-.92-.92-1.37V20q0-.34.69-.69a3.13 3.13 0 0 1 2.06-.69 3.71 3.71 0 0 1 2.06.69c.23.23.69.46.69.92h-4.15v.92zm16.7 9.38a.83.83 0 0 1 .23.69c0 .23 0 .69-.23.69a.92.92 0 0 1-1.23-1.37.91.91 0 0 1 1.23 0zm7.55 23.11c-2.29 1.6-4.81 3.43-7.78 5.26l-2.29-5.49 10.3-6.86a10.72 10.72 0 0 1 1.83 1.6 6 6 0 0 1 1.14 1.37.83.83 0 0 1 .23.69q.33.34-3.44 3.44zm8.22-2.77a24.23 24.23 0 0 0-4.12-1.6 5.33 5.33 0 0 0-1.37-2.06 5.69 5.69 0 0 0-2.29-1.83 1.82 1.82 0 0 0-1.8-.2l-.23-.22h3a5.26 5.26 0 0 0 3.66-1.37 7.55 7.55 0 0 0 1.83-5.49 29.43 29.43 0 0 0-1.83-8.7 59.45 59.45 0 0 0-4.81-11 26.72 26.72 0 0 0-8-9.38 19.87 19.87 0 0 0-12.18-4.15c-5 0-8.92 1.6-11.9 5a20.37 20.37 0 0 0-4.12 8c-.46.23-.92.23-1.37.69a2.29 2.29 0 0 0-.92 1.14h-1.6v.92h1.37a3.18 3.18 0 0 0 1.1 2.13.22.22 0 0 1 .23.21 47.77 47.77 0 0 0-.46 10.07 19 19 0 0 0 .69 6.18 9.16 9.16 0 0 0 1.87 3.64c1.14 1.14 3.2 1.83 6 1.83h11.4l.69.92A5.46 5.46 0 0 1 58.59 48c-.23.23-.23.46-.46.92-5.26 2.29-8.24 3.89-8.7 4.81l-3 5.26-2.72-12.63-1.37.23-1.84-1.37-5.5.69c-3.66.46-5.72.69-6.64.92a8.52 8.52 0 0 0-3 1.37c-.23.23-.69.46-.92.69v-.69a5.18 5.18 0 0 0-.92-2.52A8.13 8.13 0 0 0 21 44.31l-2-.69-1.83.69-.92-.92 4.34 20.82a44.92 44.92 0 0 1-5.95-9.61 36.55 36.55 0 0 1-3-14.65 34.83 34.83 0 0 1 3-14.65 38.45 38.45 0 0 1 8-12.13 36.21 36.21 0 0 1 12.13-8 36.35 36.35 0 0 1 14.65-3 35.53 35.53 0 0 1 14.65 3 38.56 38.56 0 0 1 12.13 8 36.11 36.11 0 0 1 8 12.13 36.52 36.52 0 0 1 3 14.7 26.76 26.76 0 0 1-1.62 10.91zM51.26 34.46a9.76 9.76 0 0 1-1.6.46h-1.6a11.5 11.5 0 0 1-1.14-.23c-.23 0-.23-.23-.46-.46a1.25 1.25 0 0 0 .69 1.14c.52.18 1.06.33 1.6.46a5.13 5.13 0 0 0 2.25-.68c.92-.46 1.37-.69 1.14-.92.26-.23-.14 0-.88.23zM47.6 34h3.2a1.37 1.37 0 0 0 .92-.23c-.23-.46-1.37-.69-3.2-1.14l-.69.23-.46-.23c-.23 0-.69.46-.92.92l.69.23zm20.82-6.4c-.46-.92-.46-1.37-.69-1.83-.23.66-.23 1.12 0 1.37a3.19 3.19 0 0 0 .69.46zM49.2 29.91l-5-1.37c.69.69 1.14 1.37 1.6 1.37.42.43 1.57.21 3.4 0zM84.9 72a4.27 4.27 0 0 1-.46 1.6 2.84 2.84 0 0 1-1.14 1.14 2.3 2.3 0 0 1-2.75 0 2.84 2.84 0 0 1-1.14-1.14 3.37 3.37 0 0 1-.41-1.38 5.88 5.88 0 0 1 .46-1.6 2.78 2.78 0 0 1 1.14-1.14 2.3 2.3 0 0 1 2.75 0 2.78 2.78 0 0 1 1.14 1.14A2.4 2.4 0 0 1 84.9 72zm-.23 0a3.28 3.28 0 0 0-.46-1.37 1.8 1.8 0 0 0-.92-.92 2.3 2.3 0 0 0-2.75 0 1.8 1.8 0 0 0-.92.92 2.29 2.29 0 0 0 0 2.75 1.8 1.8 0 0 0 .92.92 2.3 2.3 0 0 0 2.75 0 1.8 1.8 0 0 0 .92-.92 3.23 3.23 0 0 0 .46-1.38z"/><path d="M82.15 70.39a.81.81 0 0 1 .69.23c.23.23.23.23.23.46s0 .23-.23.46c0 .23-.23.23-.46.23h.23l.23.23v1.37h-.46V72h-1.14v1.14h-.46v-3h1.37zm0 1.37c.23-.23.23-.23.46-.23v-.22c0-.23 0-.23-.23-.46a.75.75 0 0 0-.46-.23h-.69v.92h.69a.22.22 0 0 0 .22.22z"/></g></svg><svg id="mail" viewBox="-1 -1 66 50" width="66" height="50" x="369.48" y="189.93" xmlns="http://www.w3.org/2000/svg"><style>.aust0{fill:#d59541}</style><path class="aust0" d="M0 0v8l32 16L64 8V0H0zm0 16v32h64V16L32 32 0 16z"/></svg><svg id="photoshop" data-name="Layer 1" viewBox="-1 -1 68 66.35" width="68" height="66.35" x="204" y="242.09" xmlns="http://www.w3.org/2000/svg"><defs><style>.avcls-1{fill:#d59541}</style></defs><path class="avcls-1" d="M2.75 2.75h60.5V61.6H2.75zM0 64.35h66V0H0zm44.5-38c-2.17 0-2.91 1.1-2.91 2S42.08 30 45 31.54c4.32 2.09 5.67 4.1 5.67 7 0 4.4-3.35 6.76-7.89 6.76a12 12 0 0 1-5.64-1.18c-.19-.08-.22-.22-.22-.44v-4c0-.27.14-.36.33-.22a10.23 10.23 0 0 0 5.53 1.62c2.17 0 3.08-.91 3.08-2.15 0-1-.63-1.87-3.41-3.3-3.91-1.87-5.53-3.77-5.53-6.93 0-3.55 2.78-6.49 7.59-6.49a12.69 12.69 0 0 1 4.92.77.6.6 0 0 1 .27.55v3.77c0 .22-.14.36-.41.27a9.32 9.32 0 0 0-4.79-1.17zm-23.66 3.32h2.23c3.22 0 6.24-1.13 6.24-5.5 0-3.49-2.17-5.25-5.83-5.25-1.1 0-2.15.05-2.64.08zM16 15.07c0-.19.39-.33.6-.33 1.76-.08 4.37-.14 7.1-.14 7.62 0 10.59 4.18 10.59 9.52 0 7-5.06 10-11.27 10h-2.15V44.6c0 .22-.08.33-.33.33h-4.26c-.22 0-.33-.08-.33-.33V15.07z"/></svg><svg id="php" data-name="Layer 1" viewBox="-1 -1 67.99 33.55" width="67.99" height="33.55" x="252.31" y="201.47" xmlns="http://www.w3.org/2000/svg"><defs><style>.awcls-1{fill:#d59541}</style></defs><path class="awcls-1" d="M13.21 10.55c2.06 0 3.43.38 4.12 1.14s.85 2.07.49 3.92a6.55 6.55 0 0 1-2.17 4.13 8.07 8.07 0 0 1-4.88 1.2h-3.3l2-10.42zM0 31.51h5.42l1.29-6.57h4.64a16.63 16.63 0 0 0 5.06-.65A9.61 9.61 0 0 0 20 22.08a10.82 10.82 0 0 0 3.43-6.14q.86-4.42-1.3-6.9t-6.86-2.47H4.84zM27.41 0h5.38L31.5 6.62h4.8q4.52 0 6.24 1.58c1.15 1.05 1.48 2.76 1 5.11l-2.22 11.63h-5.47l2.14-11c.25-1.25.16-2.11-.27-2.56A3.77 3.77 0 0 0 35 10.7h-4.3L28 24.94h-5.43zm28.13 10.55c2.06 0 3.43.38 4.12 1.14s.85 2.07.49 3.92A6.53 6.53 0 0 1 58 19.73a8 8 0 0 1-4.9 1.21h-3.3l2-10.42zm-13.21 21h5.42L49 24.94h4.64a16.63 16.63 0 0 0 5.06-.65 9.67 9.67 0 0 0 3.61-2.17 10.79 10.79 0 0 0 3.44-6.18q.85-4.42-1.3-6.9t-6.86-2.47H47.16z"/></svg><svg id="rain" data-name="Layer 1" width="66" height="66" viewBox="-1 -1 66 66" y="310.09000000000003" xmlns="http://www.w3.org/2000/svg"><defs><style>.axcls-1{fill:#d4953f}</style></defs><path class="axcls-1" d="M36 0a20.42 20.42 0 0 0-20 16A16 16 0 0 0 0 32a15.4 15.4 0 0 0 4.27 10.72A11.88 11.88 0 0 1 12 40a10.51 10.51 0 0 1 4.47 1A12 12 0 0 1 28 32a12.06 12.06 0 0 1 11.51 9A11.84 11.84 0 0 1 44 40a11.94 11.94 0 0 1 11 7.52A12.07 12.07 0 0 0 64 36c0-5.2-3.36-10.32-8-12v-4A20 20 0 0 0 36 0zm-9.27 40A4 4 0 0 0 24 44v16a4 4 0 1 0 8 0V44a4 4 0 0 0-4.71-4h-.56zm-16 8A4 4 0 0 0 8 52v8a4 4 0 1 0 8 0v-8a4 4 0 0 0-4.71-4h-.54zm32 0A4 4 0 0 0 40 52v8a4 4 0 1 0 8 0v-8a4 4 0 0 0-4.71-4h-.58z" transform="translate(-.04)"/></svg><svg id="react" data-name="Layer 1" viewBox="-1 -1 67.55 60.47" width="67.55" height="60.47" x="369.48" y="63.46" xmlns="http://www.w3.org/2000/svg"><defs><style>.aycls-1{fill:#d59541}.aycls-2{fill:none;stroke:#d59541;stroke-width:2.85px}</style></defs><circle class="aycls-1" cx="32.78" cy="29.23" r="5.84"/><ellipse class="aycls-2" cx="32.78" cy="29.23" rx="31.35" ry="11.97"/><ellipse class="aycls-2" cx="32.78" cy="29.23" rx="11.97" ry="31.35" transform="rotate(-30 32.765 29.24)"/><ellipse class="aycls-2" cx="32.78" cy="29.23" rx="31.35" ry="11.97" transform="rotate(-60 32.774 29.234)"/></svg><svg id="sass" data-name="Layer 1" viewBox="-1 -1 68 68" width="68" height="68" y="242.09" xmlns="http://www.w3.org/2000/svg"><defs><style>.azcls-1{fill:#d59541}</style></defs><path class="azcls-1" d="M33 0a33 33 0 1 0 33 33A33 33 0 0 0 33 0zm10.76 29.26c-5.76 2.21-10.45 1.86-12.39 1.22a6.31 6.31 0 0 1-3.82-3c-.12-.32-.34-.86 0-1s.29-.09.85.52 2.6 2.1 6.67 1.65C45.64 27.46 52 19.25 50 14.82c-1.41-3.09-9.56-4.49-19.74.58C17.83 21.6 17.15 26.71 17 28.65c-.29 5.33 6.58 8.14 10.3 12.11l.26.28a15.81 15.81 0 0 1 5.16-.7c6-.1 9.41 3.86 9.27 7.41a4.52 4.52 0 0 1-3.15 4c-.35.06-.53.07-.58-.2s.09-.27.5-.52a3.85 3.85 0 0 0 1.84-2.6c.22-1.51-.92-5.13-6.71-5.8a13.22 13.22 0 0 0-5.05.29A11.38 11.38 0 0 1 27.77 53a10.38 10.38 0 0 1-11.19 4.53c-1.4-.39-3.52-3.28-1.69-7.32 1.73-3.78 9.11-7.52 10.11-8-3.42-2.95-11.76-6.92-12.93-13-.33-1.72.47-5.85 5.54-10.59 4.26-4 10.19-7 15.66-9 9.2-3.27 18.92-1.34 20.41 4.52s-3.51 12.64-9.92 15.12z"/><path class="azcls-1" d="M20.31 48.32c-2.22 2.35-2.84 5.3-1.6 6s3.83-.12 5.74-2.22A9.2 9.2 0 0 0 26 49.9l.21-.48a4.09 4.09 0 0 0 .18-.49 8.45 8.45 0 0 0 .05-4.93l-.3.16a22.4 22.4 0 0 0-5.83 4.16z"/></svg><svg id="smashing" data-name="Layer 1" viewBox="-1 -1 150 41.14" width="150" height="41.14" y="20.23" xmlns="http://www.w3.org/2000/svg"><defs><style>.bacls-1{fill:url(#baradial-gradient)}.bacls-2{fill:#a8abad}.bacls-3{fill:#e9362b}.bacls-4{fill:#ed5b2d}</style><radialGradient id="baradial-gradient" cx="108.38" cy="686.1" r="46.37" gradientTransform="translate(6 -669.34)" gradientUnits="userSpaceOnUse"><stop offset="0" stop-color="#eb5b2f"/><stop offset="1" stop-color="#e8322c"/></radialGradient></defs><path class="bacls-1" d="M54.28 15.64A15.17 15.17 0 0 0 51 14.57a7.62 7.62 0 0 1-2.77-1 1.22 1.22 0 0 1-.45-.9 1.09 1.09 0 0 1 .47-.92 3.41 3.41 0 0 1 2.06-.55 3.1 3.1 0 0 1 1.92.5 2.64 2.64 0 0 1 .84 1.66l3-.13a4.4 4.4 0 0 0-1.5-3.3 6.43 6.43 0 0 0-4.24-1.24 7.55 7.55 0 0 0-3 .53 4.11 4.11 0 0 0-1.87 1.5 4 4 0 0 0-.66 2.14 3.87 3.87 0 0 0 1.37 3 8.22 8.22 0 0 0 3.4 1.48c1.27.32 2.06.53 2.43.66a2.28 2.28 0 0 1 1.08.66 1.29 1.29 0 0 1 .32.9 1.81 1.81 0 0 1-.74 1.44 4 4 0 0 1-4.38-.08 3.58 3.58 0 0 1-1.08-2.16l-2.93.29a5.65 5.65 0 0 0 1.82 3.82 6.5 6.5 0 0 0 4.35 1.32 8.13 8.13 0 0 0 3.24-.55 4.53 4.53 0 0 0 2.38-5.95q-.11-.24-.24-.48a3.73 3.73 0 0 0-1.54-1.57zm42.21 0a14.91 14.91 0 0 0-3.27-1.07 7.62 7.62 0 0 1-2.77-1 1.22 1.22 0 0 1-.45-.9 1.09 1.09 0 0 1 .47-.92 3.41 3.41 0 0 1 2.06-.55 3.1 3.1 0 0 1 1.92.5 2.64 2.64 0 0 1 .84 1.66l3-.13a4.4 4.4 0 0 0-1.5-3.3 6.43 6.43 0 0 0-4.24-1.24 7.55 7.55 0 0 0-3 .53 4.11 4.11 0 0 0-1.87 1.5 4 4 0 0 0-.68 2.14 3.87 3.87 0 0 0 1.37 3 8.22 8.22 0 0 0 3.4 1.48c1.27.32 2.06.53 2.43.66a2.28 2.28 0 0 1 1.08.66 1.29 1.29 0 0 1 .32.9A1.81 1.81 0 0 1 95 21a4 4 0 0 1-4.38-.08 3.58 3.58 0 0 1-1.08-2.16l-2.93.24a5.65 5.65 0 0 0 1.82 3.82 6.5 6.5 0 0 0 4.35 1.32 8.22 8.22 0 0 0 3.22-.51 4.53 4.53 0 0 0 2.38-5.95q-.1-.24-.24-.48a4 4 0 0 0-1.65-1.56zm17 8.23h3.16V8.92h-3.16zm14.13-5l-6.35-10h-3.06v15h2.9v-9.78l6.25 9.75h3.19V8.89h-2.9v10zm-18.82-4.09h-6V8.92h-3.1v15h3.08v-6.59h6v6.54h3.08V8.92h-3.08zm-30-5.89l-5.51 15h3l1.16-3.4h5.65l1.24 3.4h3.11l-5.67-15zm-.45 9l1.9-5.56 2 5.56zm-13.18 1.34L61.93 8.89h-4.8V24h3.11V13.66l3.3 10.39h3.24l3.3-10.39v10.39h3.11V8.92h-4.83zm74-1.53l.05.05 2 2 1.61-.18a4.64 4.64 0 1 1-3.43-7.78 4.7 4.7 0 0 1 3.93 2.21l2.72-.92a7.47 7.47 0 1 0-3.18 10.07 7.13 7.13 0 0 0 1.81-1.32l-.05 1.42 1.87 1.87 1.5-8.82z"/><path class="bacls-2" d="M78.61 33.23h2.56v1.61a4 4 0 0 1-1.17.63 3.91 3.91 0 0 1-1.4.26 3.22 3.22 0 0 1-2.32-.87 3.48 3.48 0 0 1-.9-2.61 4 4 0 0 1 .42-1.92 2.69 2.69 0 0 1 1.2-1.16 3.31 3.31 0 0 1 1.63-.37 3.43 3.43 0 0 1 1.19.21 2 2 0 0 1 .84.58 2.78 2.78 0 0 1 .53 1.11l1-.29A3.74 3.74 0 0 0 81.5 29a3.18 3.18 0 0 0-1.19-.82 5.2 5.2 0 0 0-3.93.21 3.83 3.83 0 0 0-1.53 1.56 5.09 5.09 0 0 0-.58 2.48 4.57 4.57 0 0 0 .58 2.4 4.22 4.22 0 0 0 1.58 1.53 4.83 4.83 0 0 0 2.27.53 5 5 0 0 0 1.87-.34 4.51 4.51 0 0 0 .63-.29v.53h1.13v-4.5h-3.69v1zM51 34c-.21.61-.37 1.08-.47 1.4l-.42-1.29L48 28h-1.76v8.67h1.11v-7.42l2.53 7.38h1l2.53-7.25v7.25h1.11V28H53zm13.13-6L61 36.63h1.13L63 34h3.43l1 2.64h1.17L65.25 28zm-.82 5.11l.9-2.53a12 12 0 0 0 .45-1.66c.13.45.32 1.05.58 1.79l.76 2.36zM91.49 28l-3.14 8.67h1.13l.9-2.64h3.43l1 2.64H96L92.65 28zm-.82 5.11l.9-2.53a12.31 12.31 0 0 0 .43-1.7c.13.45.32 1.05.58 1.79l.84 2.4zm38 1.71l-4.3-6.8h-1.11v8.67h1v-6.86l4.27 6.83h1.11V28h-1v6.8zm9.52.82v-3h4.51v-1.07h-4.51V29H143v-1h-5.88v8.67h6.09v-1.1zm-23.41 1h1.08V28h-1.08zM103.58 35l4.56-6v-1h-5.83v1h4.56a11.4 11.4 0 0 0-.84 1l-4.19 5.57v1h6.43v-1h-5.19z"/><path class="bacls-3" d="M17.37 22.31c-5.19-2-9.57-5.48-9.86-10A10 10 0 0 1 10 4.65L2.21 6.49A2.87 2.87 0 0 0 .08 10l6.43 27A2.89 2.89 0 0 0 10 39.06l3.32-.79a37.18 37.18 0 0 1-5.64-2.37l3.08-7a14.48 14.48 0 0 0 8.86 3.24c5.21-.02 7.53-6.14-2.25-9.83zm21.7 6.85L32.64 2.22A2.87 2.87 0 0 0 29.18.08L23.6 1.41a24.1 24.1 0 0 1 7.3 2.45l-2.43 6.71s-2-2.24-7.41-2.53c-5.11-.26-8 5.3 2 8.57 7.65 2.5 10.1 7.33 10 11.78A10.81 10.81 0 0 1 31.24 34l5.67-1.34a2.91 2.91 0 0 0 2.16-3.52z"/><path class="bacls-4" d="M31.93 2.38A2.18 2.18 0 0 0 29.32.77l-4 1a25.56 25.56 0 0 1 5.62 2.11l-2.47 6.69s-2-2.24-7.41-2.53c-5.11-.26-8 5.3 2 8.57a17.76 17.76 0 0 1 6.14 3.27l.18-.05c2-.71 3.82-3.27 5.19-6.3zM7.49 12.27a10.33 10.33 0 0 1 1.71-6.7L2.35 7.21A2.18 2.18 0 0 0 .74 9.82l3.69 15.47a16.45 16.45 0 0 1 8-5.51c-2.78-1.95-4.73-4.51-4.94-7.51z"/></svg><svg id="star" data-name="Layer 1" width="66" height="66" viewBox="-1 -1 66 66" x="128" y="310.09000000000003" xmlns="http://www.w3.org/2000/svg"><defs><style>.bbcls-1{fill:#d4953f}</style></defs><path class="bbcls-1" d="M32 0l-8 24H0l20 16-8 24 20-16 20 16-8-24 20-16H40z"/></svg><svg id="tools" data-name="Layer 1" viewBox="-1 -1 68.04 67.12" width="68.04" height="67.12" x="252.31" xmlns="http://www.w3.org/2000/svg"><defs><style>.bccls-1{fill:#d59541}</style></defs><path class="bccls-1" d="M13.06 25.3a12.76 12.76 0 0 0 3.94-.61l7.46 7.45L32.58 24l-7.46-7.46A12.69 12.69 0 0 0 22 3.7 12.52 12.52 0 0 0 13.1 0a12.78 12.78 0 0 0-5.47 1.23.88.88 0 0 0-.41 1.16 1 1 0 0 0 .17.24l7.85 7.85a3 3 0 0 1 0 4.31 3.14 3.14 0 0 1-4.32 0L3.06 7a.87.87 0 0 0-1.23 0 1 1 0 0 0-.17.24 12.64 12.64 0 0 0 11.4 18.1zm39.86 14.52a12.85 12.85 0 0 0-3.89.61l-8.25-8.25-8.18 8.17 8.25 8.25A12.74 12.74 0 0 0 44 61.42a12.54 12.54 0 0 0 8.93 3.7 12.76 12.76 0 0 0 5.47-1.24.86.86 0 0 0 .41-1.16.81.81 0 0 0-.17-.24l-7.85-7.85a3 3 0 0 1-.07-4.24l.07-.08a3.14 3.14 0 0 1 4.32 0L63 58.16a.87.87 0 0 0 1.23 0 .81.81 0 0 0 .17-.24A12.64 12.64 0 0 0 53 39.82z"/><path class="bccls-1" d="M49.56 21.21s1.37 1.2 2.49.64 4.86 2.89 6 3.72l-.63.63a2.12 2.12 0 0 0 3 3l5-4.94a2.12 2.12 0 0 0-3-3l-.82.82c-.68-.94-1.82-2.54-1.67-3.08.6-2.33-4.14-7.82-4.14-7.82C44-.6 36.12-.33 32.38 1c-1.5.52-1.22.84.34 1.12 11.36 2 12.77 8.68 10.84 11.26-.74 1 .34 2.2.34 2.2l.41.4-19.19 19.14a3.63 3.63 0 0 1 .73.56l3.23 3.22a3.25 3.25 0 0 1 .55.73l19.18-19.17zM24.57 37a2 2 0 0 0-2.67-.1L.59 56a1.69 1.69 0 0 0-.19 2.37l.1.11 5.8 5.8a1.69 1.69 0 0 0 2.38 0 .52.52 0 0 0 .1-.11l19.11-21.31a2 2 0 0 0-.1-2.67z"/></svg><svg id="twitter" data-name="Layer 1" width="53.78" height="44.06" viewBox="-1 -1 53.78 44.06" x="100.6" y="193.82" xmlns="http://www.w3.org/2000/svg"><defs><style>.bdcls-1{fill:#fff}</style></defs><path class="bdcls-1" d="M51.78 5a22.23 22.23 0 0 1-5.32 5.52v1.38a30.15 30.15 0 0 1-1.25 8.53 30.81 30.81 0 0 1-3.76 8.13 32.1 32.1 0 0 1-6.06 6.92 27 27 0 0 1-8.48 4.8 31 31 0 0 1-10.62 1.8A29.47 29.47 0 0 1 0 37.29a22.71 22.71 0 0 0 2.56.13 20.78 20.78 0 0 0 13.17-4.53 10.63 10.63 0 0 1-9.92-7.36 13.45 13.45 0 0 0 2 .16 11 11 0 0 0 2.79-.36 10.44 10.44 0 0 1-6.09-3.67 10.25 10.25 0 0 1-2.41-6.75v-.13a10.52 10.52 0 0 0 4.8 1.34 10.6 10.6 0 0 1-3.45-3.78 10.34 10.34 0 0 1-1.28-5.07 10.4 10.4 0 0 1 1.45-5.33 30.08 30.08 0 0 0 9.71 7.83A29.57 29.57 0 0 0 25.53 13a11.79 11.79 0 0 1-.26-2.43 10.23 10.23 0 0 1 3-7.48 10.64 10.64 0 0 1 15 0l.21.22A20.81 20.81 0 0 0 50.33.8a10.3 10.3 0 0 1-4.67 5.85A21.14 21.14 0 0 0 51.78 5z"/></svg><svg id="wifi" data-name="Layer 1" width="62" height="66" viewBox="-1 -1 62 66" x="66" y="310.09000000000003" xmlns="http://www.w3.org/2000/svg"><defs><style>.becls-1{fill:#d4953e}</style></defs><path class="becls-1" d="M29.88 0A55.39 55.39 0 0 0 0 8.72l4.22 6.48a47.32 47.32 0 0 1 25.66-7.28 47.31 47.31 0 0 1 25.9 7.28L60 8.72A55.53 55.53 0 0 0 29.88 0zm0 24a31.08 31.08 0 0 0-17 5l4.22 6.72A23.09 23.09 0 0 1 29.8 32a24.17 24.17 0 0 1 13 3.76L47 29a32.37 32.37 0 0 0-17.2-5h.07zm0 24a8 8 0 1 0 8 8 8 8 0 0 0-8-8z"/></svg><svg id="youtube" data-name="Layer 1" width="36.75" height="44" viewBox="-1 -1 36.75 44" x="201.69" y="140.18" xmlns="http://www.w3.org/2000/svg"><defs><style>.bfcls-1{fill:#fff}</style></defs><path class="bfcls-1" d="M22.13 29.15v5q0 1.57-.91 1.57a1.5 1.5 0 0 1-1.06-.52v-7.11a1.5 1.5 0 0 1 1.06-.54q.91 0 .91 1.6zm7.92 0v1.08h-2.1v-1.06q0-1.59 1.06-1.59t1 1.59zM7.42 24h2.5v-2.14h-7.3v2.2h2.46V37.4h2.34V24zm6.75 13.4h2.09V25.82h-2.09v8.86a1.86 1.86 0 0 1-1.31 1 .48.48 0 0 1-.49-.47 6.52 6.52 0 0 1 0-.82v-8.57h-2.14V35a5.79 5.79 0 0 0 .19 1.71 1.26 1.26 0 0 0 1.36.87 3.43 3.43 0 0 0 2.39-1.43v1.25zm10.05-3.47v-4.6A8.33 8.33 0 0 0 24 27a1.63 1.63 0 0 0-1.67-1.31A2.82 2.82 0 0 0 20.16 27v-5.1h-2.08v15.5h2.09v-1.13a2.91 2.91 0 0 0 2.18 1.31A1.62 1.62 0 0 0 24 36.27a8.61 8.61 0 0 0 .22-2.35zm7.92-.24v-.3H30a11.6 11.6 0 0 1 0 1.43.9.9 0 0 1-.94.85q-1.08 0-1.08-1.61V32h4.19v-2.41a4.65 4.65 0 0 0-.66-2.72 3.2 3.2 0 0 0-5 0 4.52 4.52 0 0 0-.66 2.72v4.05a4.4 4.4 0 0 0 .66 2.72 3 3 0 0 0 2.49 1.2 2.9 2.9 0 0 0 3-2.51 10.31 10.31 0 0 0 .09-1.36zM17.89 12.3V7.38q0-1.61-1-1.61t-1 1.61v4.92q0 1.64 1 1.64t1-1.64zm16.85 17.6a40.6 40.6 0 0 1-.61 8.2 4.45 4.45 0 0 1-1.36 2.32 4.1 4.1 0 0 1-2.39 1.08 125.31 125.31 0 0 1-13 .49 125.31 125.31 0 0 1-13-.49A4.15 4.15 0 0 1 2 40.42 4.28 4.28 0 0 1 .63 38.1 39.76 39.76 0 0 1 0 29.9a40.6 40.6 0 0 1 .61-8.2A4.45 4.45 0 0 1 2 19.37a4.25 4.25 0 0 1 2.41-1.1q4.29-.47 13-.47t13 .47a4.4 4.4 0 0 1 3.75 3.42 39.76 39.76 0 0 1 .58 8.21zM11.35 0h2.39l-2.83 9.35v6.35H8.57V9.35a39.68 39.68 0 0 0-1.43-5Q6.27 2 5.61 0H8.1l1.67 6.16zM20 7.8v4.1a4.59 4.59 0 0 1-.66 2.76 2.88 2.88 0 0 1-2.49 1.19 2.9 2.9 0 0 1-2.46-1.19 4.68 4.68 0 0 1-.66-2.76V7.8a4.59 4.59 0 0 1 .66-2.74 2.9 2.9 0 0 1 2.46-1.19 2.88 2.88 0 0 1 2.49 1.19A4.59 4.59 0 0 1 20 7.8zM27.87 4v11.7h-2.13v-1.27a3.37 3.37 0 0 1-2.41 1.45A1.31 1.31 0 0 1 22 15a6 6 0 0 1-.19-1.76V4h2.13v8.6a6.14 6.14 0 0 0 0 .82.49.49 0 0 0 .47.52 1.87 1.87 0 0 0 1.31-1V4h2.16z"/></svg></svg>