<svg id="Layer_1" data-name="Layer 1" xmlns="http://www.w3.org/2000/svg" xmlns:xlink="http://www.w3.org/1999/xlink" viewBox="0 0 47.13 66"><defs><style>.cls-1{fill:#d59541;}.cls-2{fill:#fff;}.cls-3{fill:url(#linear-gradient);}.cls-4,.cls-5{opacity:0.05;isolation:isolate;}.cls-5{fill:#3c9cd7;}</style><linearGradient id="linear-gradient" x1="-375.32" y1="121.52" x2="-375.32" y2="115.87" gradientTransform="matrix(1, 0, 0, -1, 385.4, 156.06)" gradientUnits="userSpaceOnUse"><stop offset="0.39" stop-color="#d1d3d4" stop-opacity="0"/><stop offset="1" stop-color="#d1d3d4"/></linearGradient></defs><title>css</title><path class="cls-1" d="M0,13,4.42,60.86,23.56,66,42.7,60.85,47.13,13ZM37.64,28.5l-14.09,6H37.14l-1.56,18L23.57,56,11.48,52.4l-.77-9h5.95l.4,4.6,6.41,1.64h.06l6.64-1.88.46-7.52-20.16-.08h-.16l-.46-5.63,13.7-5.71.8-.33h-15l-.72-5.78H38.22Z"/><path class="cls-1" d="M12.69,6V3.12h4.16V0H9.59V8.81h7.26V6Z"/><path class="cls-1" d="M24.33,3.12h2.91V0H20V3.12c1,1,1.48,1.43,2.88,2.85H20V8.81h7.28V6Zm10.3,0h2.91V0H30.26V3.12c1,1,1.48,1.43,2.89,2.85H30.26V8.81h7.28V6Z"/><path class="cls-2" d="M10.32,40.17l0,0-.46-5.65h0Z"/><path class="cls-3" d="M10.32,40.17l0,0-.46-5.65h0Z"/><path class="cls-4" d="M10.32,40.17v0h0l-.46-5.65h0Zm.39,3.19.77,9h0l-.78-9Zm12.83,6.29v0h0ZM11.48,52.4,23.54,56h0Z"/><path class="cls-5" d="M23.54,34.53H37.13L35.57,52.46,23.57,56h0L11.48,52.4l-.77-9h5.94l.4,4.68h0l6.41,1.64h.05l6.64-1.88.46-7.52-20.16-.08h-.16v0l-.46-5.63h0l13.7-5.71.81-.33h-15L8.6,22.72H38.21l-.57,5.78Z"/></svg>