<svg id="Layer_1" data-name="Layer 1" xmlns="http://www.w3.org/2000/svg" viewBox="0 0 144.54 15.28"><defs><style>.cls-1{fill:#f06529;}</style></defs><title>frontendfocus</title><path class="cls-1" d="M2.72,31.54v-15H12.86v1.78H4.71v4.65h7.06v1.78H4.71v6.83Z" transform="translate(-2.72 -16.5)"/><path class="cls-1" d="M15.19,31.54V20.65h1.66V22.3A4.54,4.54,0,0,1,18,20.77a2,2,0,0,1,1.18-.37,3.66,3.66,0,0,1,1.9.59l-.64,1.72a2.6,2.6,0,0,0-1.35-.4,1.78,1.78,0,0,0-1.09.36,2,2,0,0,0-.69,1,7.4,7.4,0,0,0-.3,2.15v5.71Z" transform="translate(-2.72 -16.5)"/><path class="cls-1" d="M21.52,26.09a5.61,5.61,0,0,1,1.68-4.48,5.06,5.06,0,0,1,3.42-1.21,4.9,4.9,0,0,1,3.68,1.47,5.6,5.6,0,0,1,1.42,4.07,7.17,7.17,0,0,1-.63,3.3,4.45,4.45,0,0,1-1.84,1.88,5.38,5.38,0,0,1-2.63.66,4.91,4.91,0,0,1-3.69-1.46A5.87,5.87,0,0,1,21.52,26.09Zm1.9,0a4.61,4.61,0,0,0,.91,3.13,3,3,0,0,0,4.58,0A4.75,4.75,0,0,0,29.82,26,4.49,4.49,0,0,0,28.91,23a3,3,0,0,0-2.29-1,2.92,2.92,0,0,0-2.29,1A4.62,4.62,0,0,0,23.42,26.09Z" transform="translate(-2.72 -16.5)"/><path class="cls-1" d="M33.88,31.54V20.65h1.67v1.54A3.92,3.92,0,0,1,39,20.4a4.64,4.64,0,0,1,1.81.35,3,3,0,0,1,1.24.93,3.61,3.61,0,0,1,.57,1.37,10.43,10.43,0,0,1,.1,1.79v6.7H40.89V24.91a4.75,4.75,0,0,0-.22-1.68,1.8,1.8,0,0,0-.76-.9A2.48,2.48,0,0,0,38.62,22a3,3,0,0,0-2,.75,3.69,3.69,0,0,0-.86,2.84v5.95Z" transform="translate(-2.72 -16.5)"/><path class="cls-1" d="M49.59,29.88l.27,1.63a6.81,6.81,0,0,1-1.39.17,3.18,3.18,0,0,1-1.56-.32,1.78,1.78,0,0,1-.78-.83,6.64,6.64,0,0,1-.23-2.18V22.08H44.55V20.65H45.9V18l1.84-1.11v3.81h1.85v1.43H47.74v6.37a3.41,3.41,0,0,0,.09,1,.86.86,0,0,0,.32.36,1.23,1.23,0,0,0,.63.14A5.75,5.75,0,0,0,49.59,29.88Z" transform="translate(-2.72 -16.5)"/><path class="cls-1" d="M58.85,28l1.91.23a4.68,4.68,0,0,1-1.67,2.6,5.07,5.07,0,0,1-3.12.92,5,5,0,0,1-3.79-1.47,5.77,5.77,0,0,1-1.4-4.13,6,6,0,0,1,1.42-4.26,4.78,4.78,0,0,1,3.67-1.52,4.69,4.69,0,0,1,3.57,1.49,5.9,5.9,0,0,1,1.38,4.18c0,.11,0,.27,0,.49H52.69a4.19,4.19,0,0,0,1,2.75,3,3,0,0,0,2.27,1,2.76,2.76,0,0,0,1.73-.53A3.49,3.49,0,0,0,58.85,28Zm-6.06-3h6.08A3.72,3.72,0,0,0,58.18,23a2.83,2.83,0,0,0-2.29-1.06,2.93,2.93,0,0,0-2.14.85A3.35,3.35,0,0,0,52.79,25.05Z" transform="translate(-2.72 -16.5)"/><path class="cls-1" d="M63.08,31.54V20.65h1.66v1.54A3.92,3.92,0,0,1,68.2,20.4a4.64,4.64,0,0,1,1.81.35,2.9,2.9,0,0,1,1.24.93,3.61,3.61,0,0,1,.57,1.37,10.15,10.15,0,0,1,.11,1.79v6.7H70.08V24.91a5,5,0,0,0-.21-1.68,1.82,1.82,0,0,0-.77-.9A2.43,2.43,0,0,0,67.81,22a3,3,0,0,0-2,.75,3.69,3.69,0,0,0-.86,2.84v5.95Z" transform="translate(-2.72 -16.5)"/><path class="cls-1" d="M81.82,31.54V30.16a3.38,3.38,0,0,1-3,1.62,4.28,4.28,0,0,1-2.4-.72,4.63,4.63,0,0,1-1.69-2,6.92,6.92,0,0,1-.6-3,7.8,7.8,0,0,1,.54-3,4.28,4.28,0,0,1,4.06-2.74,3.63,3.63,0,0,1,1.76.42A3.54,3.54,0,0,1,81.7,21.9V16.5h1.83v15ZM76,26.1a4.71,4.71,0,0,0,.88,3.13,2.65,2.65,0,0,0,2.08,1,2.62,2.62,0,0,0,2.06-1,4.54,4.54,0,0,0,.84-3A5.16,5.16,0,0,0,81,23a2.65,2.65,0,0,0-2.12-1,2.56,2.56,0,0,0-2.06,1A5,5,0,0,0,76,26.1Z" transform="translate(-2.72 -16.5)"/><path class="cls-1" d="M92.61,31.54v-15h10.14v1.78H94.6v4.65h7.05v1.78H94.6v6.83Z" transform="translate(-2.72 -16.5)"/><path class="cls-1" d="M104.41,26.09a5.61,5.61,0,0,1,1.68-4.48,5.06,5.06,0,0,1,3.43-1.21,4.9,4.9,0,0,1,3.67,1.47,5.6,5.6,0,0,1,1.42,4.07,7.17,7.17,0,0,1-.63,3.3,4.48,4.48,0,0,1-1.83,1.88,5.4,5.4,0,0,1-2.63.66,4.92,4.92,0,0,1-3.7-1.46A5.87,5.87,0,0,1,104.41,26.09Zm1.9,0a4.61,4.61,0,0,0,.91,3.13,3,3,0,0,0,4.58,0,4.74,4.74,0,0,0,.92-3.19A4.49,4.49,0,0,0,111.8,23a3.05,3.05,0,0,0-4.58,0A4.62,4.62,0,0,0,106.31,26.09Z" transform="translate(-2.72 -16.5)"/><path class="cls-1" d="M123.88,27.55l1.82.23a4.72,4.72,0,0,1-1.53,2.94,4.39,4.39,0,0,1-3,1.06,4.69,4.69,0,0,1-3.6-1.46,6,6,0,0,1-1.36-4.19,7.55,7.55,0,0,1,.59-3.08,4,4,0,0,1,1.78-2,5.26,5.26,0,0,1,2.6-.66,4.51,4.51,0,0,1,2.9.9,4.09,4.09,0,0,1,1.44,2.55l-1.79.27a3,3,0,0,0-.91-1.65,2.33,2.33,0,0,0-1.57-.55,2.86,2.86,0,0,0-2.27,1,4.73,4.73,0,0,0-.87,3.16,4.91,4.91,0,0,0,.84,3.19,2.74,2.74,0,0,0,2.19,1A2.61,2.61,0,0,0,123,29.6,3.3,3.3,0,0,0,123.88,27.55Z" transform="translate(-2.72 -16.5)"/><path class="cls-1" d="M134.41,31.54v-1.6A4,4,0,0,1,131,31.78a4.36,4.36,0,0,1-1.8-.37,2.84,2.84,0,0,1-1.24-.93,3.43,3.43,0,0,1-.57-1.36,9.13,9.13,0,0,1-.11-1.73V20.65h1.84v6a11.25,11.25,0,0,0,.11,1.94,2,2,0,0,0,.74,1.15,2.34,2.34,0,0,0,1.4.41,3.1,3.1,0,0,0,1.56-.42,2.46,2.46,0,0,0,1-1.16,5.88,5.88,0,0,0,.3-2.13V20.65h1.84V31.54Z" transform="translate(-2.72 -16.5)"/><path class="cls-1" d="M138.22,28.29,140,28a2.58,2.58,0,0,0,.86,1.68,3,3,0,0,0,2,.58,2.92,2.92,0,0,0,1.89-.51,1.56,1.56,0,0,0,.62-1.22,1.12,1.12,0,0,0-.55-1,7.48,7.48,0,0,0-1.88-.63,16.72,16.72,0,0,1-2.82-.89,2.68,2.68,0,0,1-1.19-1,2.74,2.74,0,0,1-.4-1.46,2.81,2.81,0,0,1,.33-1.35,2.9,2.9,0,0,1,.91-1,3.88,3.88,0,0,1,1.17-.54,5.53,5.53,0,0,1,1.6-.22,6.24,6.24,0,0,1,2.25.37,3.14,3.14,0,0,1,1.43,1,3.91,3.91,0,0,1,.63,1.69l-1.8.24a2,2,0,0,0-.72-1.31,2.55,2.55,0,0,0-1.66-.47,3,3,0,0,0-1.82.42,1.23,1.23,0,0,0-.54,1,1,1,0,0,0,.23.65,1.59,1.59,0,0,0,.7.49c.19.07.73.23,1.63.47a23.4,23.4,0,0,1,2.74.86,2.71,2.71,0,0,1,1.21,1,2.65,2.65,0,0,1,.44,1.58,3.07,3.07,0,0,1-.54,1.73,3.4,3.4,0,0,1-1.55,1.27,5.79,5.79,0,0,1-2.3.44,5.09,5.09,0,0,1-3.23-.88A4.09,4.09,0,0,1,138.22,28.29Z" transform="translate(-2.72 -16.5)"/></svg>