<svg id="Layer_1" data-name="Layer 1" xmlns="http://www.w3.org/2000/svg" viewBox="0 0 100 97.53"><title>github</title><path d="M50,0A50,50,0,0,0,34.19,97.44c2.5.43,3.43-1.06,3.43-2.38s-.06-5.12-.06-9.31C25,88.06,21.75,82.69,20.75,79.88c-.56-1.44-3-5.88-5.13-7.07-1.75-.93-4.25-3.25-.06-3.31,3.94-.06,6.75,3.63,7.69,5.13,4.5,7.56,11.69,5.43,14.56,4.12A10.53,10.53,0,0,1,41,72.06C29.87,70.81,18.25,66.5,18.25,47.38a19.49,19.49,0,0,1,5.12-13.44c-.5-1.25-2.25-6.38.5-13.25,0,0,4.19-1.31,13.75,5.12a47.34,47.34,0,0,1,25,0c9.57-6.5,13.75-5.12,13.75-5.12,2.75,6.87,1,12,.5,13.25A19.34,19.34,0,0,1,82,47.38c0,19.18-11.69,23.43-22.81,24.68,1.81,1.57,3.37,4.57,3.37,9.25,0,6.69-.06,12.07-.06,13.75,0,1.32.94,2.88,3.44,2.38A50,50,0,0,0,50,0Z"/></svg>