<svg id="Layer_1" data-name="Layer 1" xmlns="http://www.w3.org/2000/svg" viewBox="0 0 29.72 66"><defs><style>.cls-1{fill:#d59541;}</style></defs><title>gulp</title><path class="cls-1" d="M22.93,64l.63-10.55,1.75-3A30.3,30.3,0,0,1,14.67,52.1,30.19,30.19,0,0,1,4.09,50.5l2,3.26L6.74,64c0,1.1,3.62,2,8.09,2s8.09-.89,8.09-2m-2-49.27,1.33-5.25,7.36-7.74L27.68.09,19.89,8.34l-1.54,6.28c-1.16,0-2.32-.06-3.49-.06C6.65,14.56,0,15.5,0,16.65s6.65,2.09,14.86,2.09,14.86-.94,14.86-2.09c0-.85-3.61-1.58-8.79-1.91"/><path class="cls-1" d="M20.16,17.68a6.07,6.07,0,0,1-1.13.07c-.85,0-1.45,0-1.69-.22a.36.36,0,0,1-.1-.25.34.34,0,0,1,.24-.29l.13.2c-.06,0-.09,0-.09.07a3.61,3.61,0,0,0,1.53.18c.66,0,1.46-.06,1.46-.18s-.06-.07-.17-.09l.13-.2c.17.05.32.16.32.33s-.39.35-.64.38M29.61,1.75c.19-.21-.1-.76-.63-1.22s-1.11-.66-1.3-.45.1.76.63,1.22,1.11.66,1.3.45m-7,36.48c-.17-1.68,3.67-4.11,2.68-4.19-2.12.12-3.18,2.49-4.25,5-.39.91-1.73,4.79-2.61,4.31s1.14-3.66,1.71-5.56c-.65.48-3,2.34-3.66.6-1,.84-3.11,1.3-2.87-.91-.53.93-1.71,2.24-3.13,1.7-1.87-.71,1.08-6.66,1.81-6.36s-.15,1.65-.38,2.18c-.51,1.16-1.09,2.61-.7,2.91.67.51,2.5-1.93,2.54-2,.34-.45,1.31-3.4,2.1-3.06s-2,4.24-.93,5c.21.16,1.05-.1,1.57-.65.33-.36.22-1.16,1.33-3.8s2.1-5.94,2.86-5.69.13,1.94-.14,2.57c-1.28,3-3.5,7.85-2.45,7.48a4.37,4.37,0,0,0,2.61-1.59c1-1.2,1-3.17,1.66-3.13s.57.67.4,1.16c.67-.77,3.18-2.38,3.79-.78C27.21,35.3,22.9,38,24,37.9a6.45,6.45,0,0,0,3.47-2.19l2-17.93s-2,1.66-14.77,1.66S.1,17.82.1,17.82L1.8,34.18c.9-2.56,3-7.74,6.41-7.57,1.53.08,3.58,3,1.83,3.13-.74,0-.82-1.47-1.7-1.7A2.67,2.67,0,0,0,6.25,29C5.11,30.06,2.66,34.46,3,36.65c.41,2.79,3.86-1,4.44-2.09.41-.79.69-3.12,1.59-2.88s-.08,2.65-.73,4.78c-.73,2.39-1.12,4.91-2,4.62s.58-3.38.52-3.92C5.92,38,4.33,40,2.3,39L3.35,49.16s2.8,2.21,11.24,2.21S25.94,49.2,25.94,49.2l1.31-11.77c-1.07,1-4.46,2.89-4.68.81"/></svg>