<svg id="Layer_1" data-name="Layer 1" xmlns="http://www.w3.org/2000/svg" viewBox="0 0 46.84 66"><defs><style>.cls-1{fill:#d59541;}</style></defs><title>html</title><path id="fcode_html5" data-name="fcode html5" class="cls-1" d="M10.07,3H7.33V0h-3V8.9h3v-3h2.74v3h3V0h-3ZM31,0h-.29L28.81,3,27,0H23.92V8.9h2.91V4.48l2,3.2,2.1-3.32V8.9h2.91V0ZM14.38,3H17V8.85h3V3h2.6V0H14.38Zm24,2.91V0h-3V8.9h7.16v-3H38.38ZM0,12.92,4.42,60.59l19,5.41,19-5.41,4.42-47.67ZM37.66,28.58H15.19l.52,6H37.07L35.44,52.5l-12,3.37-12-3.37-.84-9.14h5.94L17,47.9l6.52,1.92L29.86,48l.7-7.57H10.36v.1L8.67,22.64H38.18Z"/></svg>