<svg id="Layer_1" data-name="Layer 1" xmlns="http://www.w3.org/2000/svg" viewBox="0 0 66 64.35"><defs><style>.cls-1{fill:#d59541;}</style></defs><title>illustrator</title><path class="cls-1" d="M2.75,2.75h60.5V61.6H2.75ZM0,64.35H66V0H0ZM43.23,22.94c0-.22.08-.33.33-.33h4.32c.22,0,.33.08.33.33v21.7c0,.22-.05.33-.33.33H43.62a.31.31,0,0,1-.36-.36V22.94Zm-.3-6.24a2.81,2.81,0,0,1,5.61,0,2.62,2.62,0,0,1-2.44,2.8,2.94,2.94,0,0,1-.42,0,2.58,2.58,0,0,1-2.75-2.39,2.94,2.94,0,0,1,0-.42ZM30.55,32C29.78,29,28,22.29,27.28,19.07h-.05c-.58,3.22-2,8.66-3.19,12.93Zm-7.64,4.46-2.17,8.25c0,.22-.14.27-.41.27h-4c-.27,0-.33-.08-.27-.41l7.81-27.34A8.78,8.78,0,0,0,24.14,15c0-.19.08-.27.22-.27h5.78c.19,0,.27.05.33.27L39.16,44.6c.05.22,0,.36-.22.36H34.37c-.22,0-.36-.05-.41-.25L31.7,36.43H22.9Z"/></svg>