<svg id="Layer_1" data-name="Layer 1" xmlns="http://www.w3.org/2000/svg" viewBox="0 0 66 66"><defs><style>.cls-1{fill:#d59541;}</style></defs><title>javascript</title><path class="cls-1" d="M0,0V66H66V0ZM36,51.56c0,6.41-3.78,9.35-9.24,9.35a9.82,9.82,0,0,1-9.35-5.67l4.83-3.15c1.16,1.79,2.1,3.26,4.2,3.26s3.36-.84,3.36-3.89V30.4H36Zm14.65,9.35c-5.78,0-9.56-2.73-11.34-6.3l5-3c1.37,2.21,3,3.78,6.09,3.78,2.63,0,4.2-1.26,4.2-3,0-2.1-1.68-2.84-4.52-4.1l-1.58-.63C44,45.77,41,43.35,41,38.31c0-4.71,3.59-8.31,9.11-8.31,4,0,6.83,1.37,8.82,4.94l-4.82,3.18c-1-1.89-2.21-2.63-4-2.63a2.69,2.69,0,0,0-2.93,2.43,1.34,1.34,0,0,0,0,.2c0,1.89,1.16,2.63,3.78,3.78l1.58.63c5.25,2.31,8.3,4.62,8.3,9.77,0,5.56-4.37,8.61-10.25,8.61Z"/></svg>