<svg id="Layer_1" data-name="Layer 1" xmlns="http://www.w3.org/2000/svg" viewBox="0 0 66 65.31"><defs><style>.cls-1{fill:#d59541;}</style></defs><title>jquery</title><g id="j_Group_" data-name="j Group "><path class="cls-1" d="M64.42,48.46l-.29.79c-5,9.79-14,15.77-26.64,16.06a38.32,38.32,0,0,1-15.34-3.1A39.44,39.44,0,0,1,3.79,44.86C-1.47,34.71-2.41,20.52,8.54,9.94c.14,0-1.3,2.3-1.15,2.3l-.29,1C-.82,37.88,23.45,59,47.06,56.6A31,31,0,0,0,64.42,48.46Zm.93-30.82c-.94,2.09-6.26,6.12-8.57,6.62-9.29,1.94-15.27-2.45-18.36-7.42A24.9,24.9,0,0,1,37,13.53c-1.22-4.1-.65-10.29,3-13.53a17,17,0,0,0-.65,8.93,20.57,20.57,0,0,0,2.45,5.4c1.94,2.81,3.17,3.46,5.62,5a15.54,15.54,0,0,0,2.81,1.37C52.46,21.24,57.36,23,65.35,17.64Z"/><path class="cls-1" d="M50.16,38.24A22.63,22.63,0,0,0,66,31.62C62.76,39.76,53.47,45,41,43.36,30.5,42,20.56,31.47,19.56,20.88,18.84,13.25,21.5,8.64,25.93,3.1A18.65,18.65,0,0,0,23.7,9.65C21.93,26.28,36.84,38.16,50.16,38.24Z"/></g></svg>