<svg id="Layer_1" data-name="Layer 1" xmlns="http://www.w3.org/2000/svg" viewBox="0 0 50 50"><defs><style>.cls-1{fill:#007bb6;}.cls-2{fill:#fff;}</style></defs><title>linkedinlearning</title><path class="cls-1" d="M71.3,25H28.69A3.65,3.65,0,0,0,25,28.61V71.39A3.65,3.65,0,0,0,28.69,75H71.3A3.65,3.65,0,0,0,75,71.39V28.61A3.65,3.65,0,0,0,71.3,25Z" transform="translate(-25 -25)"/><path class="cls-2" d="M32.41,43.75h7.42V67.61H32.41Zm3.71-11.87a4.31,4.31,0,1,1-4.3,4.3,4.31,4.31,0,0,1,4.3-4.3" transform="translate(-25 -25)"/><path class="cls-2" d="M44.48,43.75h7.11V47h.1a7.79,7.79,0,0,1,7-3.86c7.51,0,8.9,4.94,8.9,11.37V67.61H60.19V56c0-2.76,0-6.32-3.85-6.32s-4.45,3-4.45,6.13v11.8H44.48Z" transform="translate(-25 -25)"/></svg>