<svg id="Layer_1" data-name="Layer 1" xmlns="http://www.w3.org/2000/svg" viewBox="0 0 65.97 61.46"><defs><style>.cls-1{fill:#00857a;}</style></defs><title>link</title><path class="cls-1" d="M34.87,26.34a1.85,1.85,0,0,0,0,2.6,7.67,7.67,0,0,1,0,10.85L19.15,55.53a7.68,7.68,0,0,1-10.85,0L5.93,53.16a7.68,7.68,0,0,1,0-10.85L21.65,26.59a1.85,1.85,0,0,0,.29-2.6,1.87,1.87,0,0,0-2.61-.28A2.65,2.65,0,0,0,19,24L3.32,39.7a11.35,11.35,0,0,0,0,16l2.36,2.39a11.39,11.39,0,0,0,16.08,0L37.48,42.42a11.39,11.39,0,0,0,0-16.08,1.85,1.85,0,0,0-2.6,0Z"/><path class="cls-1" d="M62.66,5.69,60.29,3.32a11.39,11.39,0,0,0-16.08,0L28.5,19a11.39,11.39,0,0,0,0,16.08,1.85,1.85,0,0,0,2.81-2.4l0,0-.18-.18a7.68,7.68,0,0,1,0-10.85L46.83,5.93a7.68,7.68,0,0,1,10.85,0L60,8.29a7.67,7.67,0,0,1,0,10.85L44.33,34.87A1.85,1.85,0,0,0,45.63,38a1.82,1.82,0,0,0,1.3-.55L62.64,21.76a11.37,11.37,0,0,0,0-16.08h0Z"/></svg>