<svg id="Layer_1" data-name="Layer 1" xmlns="http://www.w3.org/2000/svg" viewBox="0 0 99.09 51.64"><defs><style>.cls-1{fill:#fff;}</style></defs><title>logo</title><path class="cls-1" d="M8.17,37H4.55v8H0V23H8.17a9.27,9.27,0,0,1,6,1.74,6,6,0,0,1,2.12,4.92,6.83,6.83,0,0,1-1,3.76,6.66,6.66,0,0,1-3,2.4l4.77,9V45H12.3ZM4.55,33.27H8.17a3.76,3.76,0,0,0,2.65-.87,3.09,3.09,0,0,0,.94-2.4,3.32,3.32,0,0,0-.89-2.45,3.7,3.7,0,0,0-2.7-.9H4.55ZM19.47,24.4a2.15,2.15,0,0,1,.7-1.62,2.83,2.83,0,0,1,3.58,0,2.31,2.31,0,0,1,0,3.25,2.81,2.81,0,0,1-3.58,0A2.16,2.16,0,0,1,19.47,24.4ZM24.12,45H19.73V28.64h4.39Zm8.23-16.36V45.91a5.89,5.89,0,0,1-1.44,4.21,5.46,5.46,0,0,1-4.15,1.51,9.25,9.25,0,0,1-2.16-.26V47.91a8.07,8.07,0,0,0,1.38.14c1.33,0,2-.7,2-2.1V28.64ZM27.61,24.4a2.14,2.14,0,0,1,.66-1.62,2.85,2.85,0,0,1,3.59,0,2.31,2.31,0,0,1,0,3.25,2.8,2.8,0,0,1-3.56,0A2.18,2.18,0,0,1,27.61,24.4ZM41.72,38.45,40.17,40v5h-4.4V21.77h4.4V34.65L41,33.56l4.15-4.92h5.25L44.5,35.47,51,45H46Zm19.45,2a1.41,1.41,0,0,0-.79-1.26,8.75,8.75,0,0,0-2.55-.82Q52,37.18,52,33.41a4.5,4.5,0,0,1,1.81-3.64,7.31,7.31,0,0,1,4.73-1.46,7.83,7.83,0,0,1,5,1.47,4.63,4.63,0,0,1,1.87,3.81H61A2.09,2.09,0,0,0,60.43,32a2.55,2.55,0,0,0-1.89-.61,2.61,2.61,0,0,0-1.71.5,1.56,1.56,0,0,0-.61,1.27,1.35,1.35,0,0,0,.69,1.17,7.05,7.05,0,0,0,2.32.77,18.69,18.69,0,0,1,2.76.73q3.46,1.27,3.47,4.41a4.27,4.27,0,0,1-1.92,3.63,8.3,8.3,0,0,1-5,1.38,8.53,8.53,0,0,1-3.66-.73,6,6,0,0,1-2.5-2,4.66,4.66,0,0,1-.91-2.76h4.15a2.26,2.26,0,0,0,.86,1.79,3.43,3.43,0,0,0,2.15.62,3.18,3.18,0,0,0,1.9-.48A1.47,1.47,0,0,0,61.17,40.49Zm14.64,4.83a8,8,0,0,1-5.87-2.21,7.88,7.88,0,0,1-2.26-5.89V36.8a9.89,9.89,0,0,1,1-4.41,7,7,0,0,1,2.7-3,7.61,7.61,0,0,1,4-1.05,6.8,6.8,0,0,1,5.29,2.12,8.59,8.59,0,0,1,1.93,6v1.79H72.12a4,4,0,0,0,1.28,2.57,3.84,3.84,0,0,0,2.7,1,4.72,4.72,0,0,0,4-1.83l2.07,2.38a6.53,6.53,0,0,1-2.66,2.17A8.72,8.72,0,0,1,75.81,45.32Zm-.5-13.46a2.72,2.72,0,0,0-2.11.88,4.58,4.58,0,0,0-1,2.52h6.08v-.35a3.28,3.28,0,0,0-.79-2.26A2.83,2.83,0,0,0,75.31,31.86Zm13.74-3.22.14,1.89a5.72,5.72,0,0,1,4.71-2.2,4.74,4.74,0,0,1,3.88,1.53,7.16,7.16,0,0,1,1.3,4.57V45H94.71V34.54a2.83,2.83,0,0,0-.61-2,2.71,2.71,0,0,0-2-.63,3,3,0,0,0-2.77,1.57V45H85V28.64ZM35.67,3.46h-5.5V18.75H27.06V3.46H21.57V1h14.1Zm5,3.54a4.63,4.63,0,0,1,3.67-1.68q4.21,0,4.28,4.82v8.63h-3V10.23A2.6,2.6,0,0,0,45,8.3a2.4,2.4,0,0,0-1.74-.57A2.85,2.85,0,0,0,40.6,9.32v9.44h-3V0h3ZM57.41,19a6.15,6.15,0,0,1-4.57-1.78,6.46,6.46,0,0,1-1.75-4.73v-.37a8,8,0,0,1,.76-3.53A5.82,5.82,0,0,1,54,6.17a5.68,5.68,0,0,1,3.08-.87A5.18,5.18,0,0,1,61.24,7a7.28,7.28,0,0,1,1.47,4.87v1.2H54.08a4,4,0,0,0,1.09,2.6,3.3,3.3,0,0,0,2.41,1A4,4,0,0,0,60.9,15l1.6,1.53a5.31,5.31,0,0,1-2.12,1.84A6.62,6.62,0,0,1,57.41,19ZM57.06,7.68a2.5,2.5,0,0,0-2,.85,4.48,4.48,0,0,0-1,2.38h5.65v-.22a3.61,3.61,0,0,0-.79-2.25A2.5,2.5,0,0,0,57.06,7.68ZM64.46,12a7.71,7.71,0,0,1,.77-3.5,5.61,5.61,0,0,1,2.16-2.39,6.11,6.11,0,0,1,3.2-.84A5.77,5.77,0,0,1,74.92,7a6.79,6.79,0,0,1,1.8,4.57v.7A7.92,7.92,0,0,1,76,15.76a5.5,5.5,0,0,1-2.15,2.38,6.21,6.21,0,0,1-3.23.84,5.73,5.73,0,0,1-4.42-1.85,7.12,7.12,0,0,1-1.68-5Zm3,.26a5.29,5.29,0,0,0,.84,3.19,2.75,2.75,0,0,0,2.34,1.15A2.69,2.69,0,0,0,73,15.43a5.88,5.88,0,0,0,.8-3.43,5.24,5.24,0,0,0-.86-3.17,2.9,2.9,0,0,0-4.06-.58,2.66,2.66,0,0,0-.58.58,5.82,5.82,0,0,0-.86,3.45Z"/></svg>