<svg id="Layer_1" data-name="Layer 1" xmlns="http://www.w3.org/2000/svg" viewBox="0 0 98.6 99.91"><defs><style>.cls-1{fill:#fff;}</style></defs><title>lynda</title><g id="nlynda.com_logo_1_primary_logo_" data-name="nlynda.com logo 1 primary logo "><path d="M0,82.06H2.52V96.25H0Zm3.66,3.85H6.41l2.75,6.41,3-6.41h2.75l-6.44,14H5.72l2.06-4.58Zm12.34,0h2.52v1.14c.69-.46,1.14-.92,1.6-.92a2.89,2.89,0,0,1,1.39-.22A3.54,3.54,0,0,1,25,89.54c0,.08,0,.17,0,.26v6.64H22.43V91.91a7.14,7.14,0,0,0-.23-2.52,1.22,1.22,0,0,0-.46-.92,1.32,1.32,0,0,0-.92-.23,3.19,3.19,0,0,0-1.37.46,2,2,0,0,0-.69,1.37v6.18H16.25V85.91Zm19.24-3.85h2.52V96.25H35.24V95.1a2.35,2.35,0,0,1-1.6.92,4.15,4.15,0,0,1-1.6.23,4.15,4.15,0,0,1-3.43-1.6,6.2,6.2,0,0,1,0-7.78A4.85,4.85,0,0,1,32,85.26c.69,0,1.14.23,1.83.23a6.87,6.87,0,0,1,1.6,1.14V82.06Zm-2.75,6a2.75,2.75,0,0,0-2.06.92A3.19,3.19,0,0,0,29.74,91a3,3,0,0,0,.92,2.29,2.25,2.25,0,0,0,2.06.92,2.49,2.49,0,0,0,2.06-.92A3.44,3.44,0,0,0,35.47,91a2.82,2.82,0,0,0-.69-2.08A3.67,3.67,0,0,0,32.49,88Zm15.34-2.1h2.52v10.3H47.83V95.1a2.35,2.35,0,0,1-1.6.92,4.76,4.76,0,0,1-5-1.37,6.2,6.2,0,0,1,0-7.78,4.85,4.85,0,0,1,3.43-1.6c.69,0,1.14.23,1.83.23a6.87,6.87,0,0,1,1.6,1.14v-.73ZM45.08,88a2.79,2.79,0,0,0-2.08.9A3.19,3.19,0,0,0,42.31,91a3,3,0,0,0,.92,2.29,2.25,2.25,0,0,0,2.06.92,2.49,2.49,0,0,0,2.06-.92A3.44,3.44,0,0,0,48,91a2.81,2.81,0,0,0-.67-2.06A2.94,2.94,0,0,0,45.08,88Zm8.7,6.41c-.23.23-.23.46-.23.92a1.43,1.43,0,0,0,.23.92c.23.23.46.23.92.23a1.43,1.43,0,0,0,.92-.23c.23-.23.23-.46.23-.92a1.41,1.41,0,0,0-.23-.92c-.23-.23-.46-.23-.92-.23A1.32,1.32,0,0,0,53.78,94.42ZM68.42,88l-1.14.69a4.43,4.43,0,0,0-3.66-1.79,5.47,5.47,0,0,0-3.2,1.14,3.78,3.78,0,0,0-1.14,3,6.69,6.69,0,0,0,.46,2.06,5.42,5.42,0,0,0,1.6,1.6,3.82,3.82,0,0,0,2.29.46,4.48,4.48,0,0,0,3.66-1.83l1.14.69a5.5,5.5,0,0,1-2.06,1.83,6.12,6.12,0,0,1-2.75.69,5.52,5.52,0,0,1-4.12-1.64,4.55,4.55,0,0,1-1.6-3.66,6.12,6.12,0,0,1,.69-2.75,4.47,4.47,0,0,1,2.06-2.06,7.56,7.56,0,0,1,5-.46,10.29,10.29,0,0,1,1.6.69A6,6,0,0,1,68.42,88ZM76,85.72a4.68,4.68,0,0,1,3.89,1.6A5.57,5.57,0,0,1,81.26,91a4.55,4.55,0,0,1-1.6,3.66,4.74,4.74,0,0,1-3.89,1.6,5,5,0,0,1-3.89-1.6A5.91,5.91,0,0,1,70.28,91a5.16,5.16,0,0,1,1.37-3.66A6.39,6.39,0,0,1,76,85.72Zm0,1.19a3.79,3.79,0,0,0-2.75,1.14,4.85,4.85,0,0,0-1.14,3,6.69,6.69,0,0,0,.46,2.06,4,4,0,0,0,1.37,1.37,3.44,3.44,0,0,0,2.06.43,6.89,6.89,0,0,0,2-.49,4,4,0,0,0,1.37-1.37A3.38,3.38,0,0,0,79.83,91a4.85,4.85,0,0,0-1.14-3A4.74,4.74,0,0,0,76,86.91Zm7.52-1H84.9v1.83a3.83,3.83,0,0,1,1.37-1.37,3.71,3.71,0,0,1,2.06-.69,2.8,2.8,0,0,1,1.37.23,5.1,5.1,0,0,1,1.14.69A3.69,3.69,0,0,1,91.53,88a4.18,4.18,0,0,1,1.6-1.83,3.71,3.71,0,0,1,2.06-.69,4.22,4.22,0,0,1,1.81.46,4.06,4.06,0,0,1,1.14,1.6,9,9,0,0,1,.46,3V96H97.25V90.53A5.72,5.72,0,0,0,97,88.24a3.13,3.13,0,0,0-.69-.92,1.7,1.7,0,0,0-1.12-.41,5.3,5.3,0,0,0-1.83.46,4,4,0,0,0-1.14,1.54,9.37,9.37,0,0,0-.46,3.2V96H90.39V90.76a7.14,7.14,0,0,0-.23-2.52,3.92,3.92,0,0,0-.92-1.14,2.27,2.27,0,0,0-.92-.23,3.26,3.26,0,0,0-1.6.46,6,6,0,0,0-1.14,1.37,8.53,8.53,0,0,0-.46,2.75V95.8H83.75V85.91Z"/><circle id="nwhite_background" data-name="nwhite background" class="cls-1" cx="49.66" cy="39.5" r="38.67"/><path d="M86,24.17A39.48,39.48,0,1,0,34.29,75.89l0,0A39.5,39.5,0,0,0,86,54.83,39.1,39.1,0,0,0,89.2,39.5,38.3,38.3,0,0,0,86,24.17ZM23.57,50.25l-5.95-5.72L19,44.07a7.15,7.15,0,0,1,2.06.69,8.11,8.11,0,0,1,2.05,1.15,6.44,6.44,0,0,1,.69,3.43v.92l.69-.69a10.74,10.74,0,0,1,4.12-2.29c.92-.23,3.2-.46,6.64-.92l5.25-.45,1.14.92ZM61.1,57.12c-.69-1.83-1.37-3.66-1.83-5.26-.46-1.83-.46-3-.23-3.43a11.6,11.6,0,0,0,1.6-1.83.22.22,0,0,1,.21-.23h0l5.26,6.86ZM58.35,41.56c2.06-1.83,3.2-2.75,3.66-3.2.92-.92,2.52-2.75,4.58-5.26-5.49,4.11-8.7,6.4-10.07,6.81l-1.14.46a2.64,2.64,0,0,1-1.14.23,12.12,12.12,0,0,1-3.89-.23,4,4,0,0,1-3-2.29,9.76,9.76,0,0,0-.46-1.6c-.23-.69-.23-1.37-.46-1.6a13.05,13.05,0,0,1-.92-1.83l-1.14-2.29a21.56,21.56,0,0,1-1.58-6.85H43A3.49,3.49,0,0,0,45.52,23l.46-.46.69-2.06a1.61,1.61,0,0,1,1.8-1.38h0c1.14,0,1.6.46,1.83,1.14v.46a2.45,2.45,0,0,0,1.14,2.06,4.81,4.81,0,0,0,2.53.95,3.49,3.49,0,0,0,2.52-.92c.69-.69,1.14-1.14,1.14-2.06H59v-.92H57.4a3.92,3.92,0,0,0-.92-1.14A4.75,4.75,0,0,0,54,17.76a3.41,3.41,0,0,0-2.52.92l-.69.69-.23-.23a4,4,0,0,0-2.29-.92,2.22,2.22,0,0,0-2.06.92l-.23.23c-.23-.23-.23-.46-.69-.69a4.24,4.24,0,0,0-2.06-.92c1.37-3.66,4.58-7.32,9.38-11.21,2.29,6.18,6.18,10.3,11.21,12.13.23.23.23.69.46,1.14v.23H60.64V21h4.12a.22.22,0,0,0,.21.23h0a3,3,0,0,1-.46,2.71l-.92,1.37a2.8,2.8,0,0,0-.23,1.37c0,.23.46.69.92.92a1.71,1.71,0,0,1,.46,1.14c1.14-.23,1.6-.92,1.14-1.6a1.52,1.52,0,0,1,.23-1.37l.23-.69v-.23c.46-.92.92-1.6,1.14-2.06V22.3a1.24,1.24,0,0,0-.69-1.14H68c1.14,1.14,1.37,3,.69,5.72,0,1.6-.23,2.51-.69,2.75a1.92,1.92,0,0,1-1.83-.46V45h8l1.14,1.6-9.15,6.18ZM42.11,21.19c0,.23.23.23.69.23.23,0,.23,0,.46-.23l.23-.23h2.29c0,.46-.46.69-.92,1.14a2.87,2.87,0,0,1-2.06.69,3.71,3.71,0,0,1-2.06-.69c-.46-.46-.92-.92-.92-1.37a1.41,1.41,0,0,1,.92-1.37,2.79,2.79,0,0,1,2.06-.69,3.71,3.71,0,0,1,2.06.69c.46.23.69.46.69.92H41.42v.92Zm11,0c0,.23.23.23.69.23s.46,0,.69-.23h2.06c0,.46-.23.69-.69,1.14a6.92,6.92,0,0,1-2.06.46,3.19,3.19,0,0,1-2.06-.69c-.46-.46-.92-.92-.92-1.37V20q0-.34.69-.69a3.13,3.13,0,0,1,2.06-.69,3.71,3.71,0,0,1,2.06.69c.23.23.69.46.69.92H52.17v.92Zm16.7,9.38a.83.83,0,0,1,.23.69c0,.23,0,.69-.23.69a.92.92,0,0,1-1.23-1.37.91.91,0,0,1,1.23,0Zm7.55,23.11c-2.29,1.6-4.81,3.43-7.78,5.26l-2.29-5.49,10.3-6.86a10.72,10.72,0,0,1,1.83,1.6,6,6,0,0,1,1.14,1.37.83.83,0,0,1,.23.69q.33.34-3.44,3.44Zm8.22-2.77a24.23,24.23,0,0,0-4.12-1.6,5.33,5.33,0,0,0-1.37-2.06,5.69,5.69,0,0,0-2.29-1.83,1.82,1.82,0,0,0-1.8-.2L75.77,45h3a5.26,5.26,0,0,0,3.66-1.37,7.55,7.55,0,0,0,1.83-5.49,29.43,29.43,0,0,0-1.83-8.7,59.45,59.45,0,0,0-4.81-11,26.72,26.72,0,0,0-8-9.38A19.87,19.87,0,0,0,57.44,4.91c-5,0-8.92,1.6-11.9,5a20.37,20.37,0,0,0-4.12,8c-.46.23-.92.23-1.37.69a2.29,2.29,0,0,0-.92,1.14h-1.6v.92H38.9A3.18,3.18,0,0,0,40,22.79a.22.22,0,0,1,.23.21v0a47.77,47.77,0,0,0-.46,10.07,19,19,0,0,0,.69,6.18,9.16,9.16,0,0,0,1.87,3.64c1.14,1.14,3.2,1.83,6,1.83H59.73l.69.92A5.46,5.46,0,0,1,58.59,48c-.23.23-.23.46-.46.92-5.26,2.29-8.24,3.89-8.7,4.81l-3,5.26L43.71,46.36l-1.37.23L40.5,45.22l-5.5.69c-3.66.46-5.72.69-6.64.92a8.52,8.52,0,0,0-3,1.37c-.23.23-.69.46-.92.69V48.2a5.18,5.18,0,0,0-.92-2.52A8.13,8.13,0,0,0,21,44.31l-2-.69-1.83.69-.92-.92,4.34,20.82a44.92,44.92,0,0,1-5.95-9.61,36.55,36.55,0,0,1-3-14.65,34.83,34.83,0,0,1,3-14.65,38.45,38.45,0,0,1,8-12.13,36.21,36.21,0,0,1,12.13-8,36.35,36.35,0,0,1,14.65-3,35.53,35.53,0,0,1,14.65,3,38.56,38.56,0,0,1,12.13,8,36.11,36.11,0,0,1,8,12.13A36.52,36.52,0,0,1,87.2,40,26.76,26.76,0,0,1,85.58,50.91ZM51.26,34.46a9.76,9.76,0,0,1-1.6.46h-1.6a11.5,11.5,0,0,1-1.14-.23c-.23,0-.23-.23-.46-.46a1.25,1.25,0,0,0,.69,1.14c.52.18,1.06.33,1.6.46A5.13,5.13,0,0,0,51,35.15c.92-.46,1.37-.69,1.14-.92C52.4,34,52,34.23,51.26,34.46ZM47.6,34h3.2a1.37,1.37,0,0,0,.92-.23c-.23-.46-1.37-.69-3.2-1.14l-.69.23-.46-.23c-.23,0-.69.46-.92.92l.69.23ZM68.42,27.6c-.46-.92-.46-1.37-.69-1.83-.23.66-.23,1.12,0,1.37A3.19,3.19,0,0,0,68.42,27.6ZM49.2,29.91l-5-1.37c.69.69,1.14,1.37,1.6,1.37C46.22,30.34,47.37,30.12,49.2,29.91ZM84.9,72a4.27,4.27,0,0,1-.46,1.6,2.84,2.84,0,0,1-1.14,1.14,2.3,2.3,0,0,1-2.75,0,2.84,2.84,0,0,1-1.14-1.14A3.37,3.37,0,0,1,79,72.22a5.88,5.88,0,0,1,.46-1.6,2.78,2.78,0,0,1,1.14-1.14,2.3,2.3,0,0,1,2.75,0,2.78,2.78,0,0,1,1.14,1.14A2.4,2.4,0,0,1,84.9,72Zm-.23,0a3.28,3.28,0,0,0-.46-1.37,1.8,1.8,0,0,0-.92-.92,2.3,2.3,0,0,0-2.75,0,1.8,1.8,0,0,0-.92.92,2.29,2.29,0,0,0,0,2.75,1.8,1.8,0,0,0,.92.92,2.3,2.3,0,0,0,2.75,0,1.8,1.8,0,0,0,.92-.92A3.23,3.23,0,0,0,84.67,72Z"/><path d="M82.15,70.39a.81.81,0,0,1,.69.23c.23.23.23.23.23.46s0,.23-.23.46c0,.23-.23.23-.46.23h.23l.23.23v1.37h-.46V72H81.24v1.14h-.46v-3h1.37Zm0,1.37c.23-.23.23-.23.46-.23v-.22c0-.23,0-.23-.23-.46a.75.75,0,0,0-.46-.23h-.69v.92h.69a.22.22,0,0,0,.22.22Z"/></g></svg>