<svg id="Layer_1" data-name="Layer 1" xmlns="http://www.w3.org/2000/svg" viewBox="0 0 66 64.35"><defs><style>.cls-1{fill:#d59541;}</style></defs><title>photoshop</title><path class="cls-1" d="M2.75,2.75h60.5V61.6H2.75ZM0,64.35H66V0H0Zm44.5-38c-2.17,0-2.91,1.1-2.91,2S42.08,30,45,31.54c4.32,2.09,5.67,4.1,5.67,7,0,4.4-3.35,6.76-7.89,6.76a12,12,0,0,1-5.64-1.18c-.19-.08-.22-.22-.22-.44v-4c0-.27.14-.36.33-.22a10.23,10.23,0,0,0,5.53,1.62c2.17,0,3.08-.91,3.08-2.15,0-1-.63-1.87-3.41-3.3-3.91-1.87-5.53-3.77-5.53-6.93,0-3.55,2.78-6.49,7.59-6.49a12.69,12.69,0,0,1,4.92.77.6.6,0,0,1,.27.55V27.3c0,.22-.14.36-.41.27A9.32,9.32,0,0,0,44.5,26.4ZM20.84,29.67c.63,0,1.13,0,2.23,0,3.22,0,6.24-1.13,6.24-5.5,0-3.49-2.17-5.25-5.83-5.25-1.1,0-2.15.05-2.64.08ZM16,15.07c0-.19.39-.33.6-.33,1.76-.08,4.37-.14,7.1-.14,7.62,0,10.59,4.18,10.59,9.52,0,7-5.06,10-11.27,10-1,0-1.4,0-2.15,0V44.6c0,.22-.08.33-.33.33H16.28c-.22,0-.33-.08-.33-.33V15.07Z"/></svg>