<svg id="Layer_1" data-name="Layer 1" xmlns="http://www.w3.org/2000/svg" viewBox="0 0 65.99 31.55"><defs><style>.cls-1{fill:#d59541;}</style></defs><title>php</title><path class="cls-1" d="M13.21,10.55c2.06,0,3.43.38,4.12,1.14s.85,2.07.49,3.92a6.55,6.55,0,0,1-2.17,4.13,8.07,8.07,0,0,1-4.88,1.2H7.47l2-10.42ZM0,31.51H5.42l1.29-6.57h4.64a16.63,16.63,0,0,0,5.06-.65A9.61,9.61,0,0,0,20,22.08a10.82,10.82,0,0,0,3.43-6.14q.86-4.42-1.3-6.9T15.27,6.57H4.84ZM27.41,0h5.38L31.5,6.62h4.8q4.52,0,6.24,1.58c1.15,1.05,1.48,2.76,1,5.11L41.32,24.94H35.85l2.14-11c.25-1.25.16-2.11-.27-2.56A3.77,3.77,0,0,0,35,10.7h-4.3L28,24.94H22.57ZM55.54,10.55c2.06,0,3.43.38,4.12,1.14s.85,2.07.49,3.92A6.53,6.53,0,0,1,58,19.73a8,8,0,0,1-4.9,1.21H49.8l2-10.42Zm-13.21,21h5.42L49,24.94h4.64a16.63,16.63,0,0,0,5.06-.65,9.67,9.67,0,0,0,3.61-2.17,10.79,10.79,0,0,0,3.44-6.18q.85-4.42-1.3-6.9T57.59,6.57H47.16Z"/></svg>