<svg id="Layer_1" data-name="Layer 1" xmlns="http://www.w3.org/2000/svg" viewBox="0 0 66 66"><defs><style>.cls-1{fill:#d59541;}</style></defs><title>sass</title><path class="cls-1" d="M33,0A33,33,0,1,0,66,33,33,33,0,0,0,33,0ZM43.76,29.26C38,31.47,33.31,31.12,31.37,30.48a6.31,6.31,0,0,1-3.82-3c-.12-.32-.34-.86,0-1s.29-.09.85.52,2.6,2.1,6.67,1.65C45.64,27.46,52,19.25,50,14.82c-1.41-3.09-9.56-4.49-19.74.58C17.83,21.6,17.15,26.71,17,28.65c-.29,5.33,6.58,8.14,10.3,12.11l.26.28a15.81,15.81,0,0,1,5.16-.7c6-.1,9.41,3.86,9.27,7.41a4.52,4.52,0,0,1-3.15,4c-.35.06-.53.07-.58-.2s.09-.27.5-.52a3.85,3.85,0,0,0,1.84-2.6c.22-1.51-.92-5.13-6.71-5.8a13.22,13.22,0,0,0-5.05.29A11.38,11.38,0,0,1,27.77,53a10.38,10.38,0,0,1-11.19,4.53c-1.4-.39-3.52-3.28-1.69-7.32,1.73-3.78,9.11-7.52,10.11-8-3.42-2.95-11.76-6.92-12.93-13-.33-1.72.47-5.85,5.54-10.59,4.26-4,10.19-7,15.66-9,9.2-3.27,18.92-1.34,20.41,4.52S50.17,26.78,43.76,29.26Z"/><path class="cls-1" d="M20.31,48.32c-2.22,2.35-2.84,5.3-1.6,6s3.83-.12,5.74-2.22A9.2,9.2,0,0,0,26,49.9l.21-.48a4.09,4.09,0,0,0,.18-.49A8.45,8.45,0,0,0,26.44,44l-.3.16A22.4,22.4,0,0,0,20.31,48.32Z"/></svg>