<svg id="Layer_1" data-name="Layer 1" xmlns="http://www.w3.org/2000/svg" xmlns:xlink="http://www.w3.org/1999/xlink" viewBox="0 0 148 39.14"><defs><style>.cls-1{fill:url(#radial-gradient);}.cls-2{fill:#a8abad;}.cls-3{fill:#e9362b;}.cls-4{fill:#ed5b2d;}</style><radialGradient id="radial-gradient" cx="108.38" cy="686.1" r="46.37" gradientTransform="translate(6 -669.34)" gradientUnits="userSpaceOnUse"><stop offset="0" stop-color="#eb5b2f"/><stop offset="1" stop-color="#e8322c"/></radialGradient></defs><title>smashing</title><path class="cls-1" d="M54.28,15.64A15.17,15.17,0,0,0,51,14.57a7.62,7.62,0,0,1-2.77-1,1.22,1.22,0,0,1-.45-.9,1.09,1.09,0,0,1,.47-.92,3.41,3.41,0,0,1,2.06-.55,3.1,3.1,0,0,1,1.92.5,2.64,2.64,0,0,1,.84,1.66l3-.13a4.4,4.4,0,0,0-1.5-3.3,6.43,6.43,0,0,0-4.24-1.24,7.55,7.55,0,0,0-3,.53,4.11,4.11,0,0,0-1.87,1.5,4,4,0,0,0-.66,2.14,3.87,3.87,0,0,0,1.37,3,8.22,8.22,0,0,0,3.4,1.48c1.27.32,2.06.53,2.43.66a2.28,2.28,0,0,1,1.08.66,1.29,1.29,0,0,1,.32.9A1.81,1.81,0,0,1,52.66,21a4,4,0,0,1-4.38-.08,3.58,3.58,0,0,1-1.08-2.16l-2.93.29a5.65,5.65,0,0,0,1.82,3.82,6.5,6.5,0,0,0,4.35,1.32,8.13,8.13,0,0,0,3.24-.55,4.53,4.53,0,0,0,2.38-5.95q-.11-.24-.24-.48A3.73,3.73,0,0,0,54.28,15.64Zm42.21,0a14.91,14.91,0,0,0-3.27-1.07,7.62,7.62,0,0,1-2.77-1,1.22,1.22,0,0,1-.45-.9,1.09,1.09,0,0,1,.47-.92,3.41,3.41,0,0,1,2.06-.55,3.1,3.1,0,0,1,1.92.5,2.64,2.64,0,0,1,.84,1.66l3-.13a4.4,4.4,0,0,0-1.5-3.3,6.43,6.43,0,0,0-4.24-1.24,7.55,7.55,0,0,0-3,.53,4.11,4.11,0,0,0-1.87,1.5A4,4,0,0,0,87,12.86a3.87,3.87,0,0,0,1.37,3,8.22,8.22,0,0,0,3.4,1.48c1.27.32,2.06.53,2.43.66a2.28,2.28,0,0,1,1.08.66,1.29,1.29,0,0,1,.32.9A1.81,1.81,0,0,1,95,21a4,4,0,0,1-4.38-.08,3.58,3.58,0,0,1-1.08-2.16L86.61,19a5.65,5.65,0,0,0,1.82,3.82,6.5,6.5,0,0,0,4.35,1.32A8.22,8.22,0,0,0,96,23.63a4.53,4.53,0,0,0,2.38-5.95q-.1-.24-.24-.48A4,4,0,0,0,96.49,15.64Zm17,8.23h3.16V8.92h-3.16Zm14.13-5-6.35-10h-3.06v15h2.9V14.09l6.25,9.75h3.19V8.89h-2.9v10ZM108.8,14.78h-6V8.92H99.7v15h3.08V17.33h6v6.54h3.08V8.92h-3.08Zm-30-5.89-5.51,15h3l1.16-3.4H83.1l1.24,3.4h3.11L81.78,8.89Zm-.45,9,1.9-5.56,2,5.56ZM65.17,19.23,61.93,8.89h-4.8V24h3.11V13.66l3.3,10.39h3.24l3.3-10.39V24.05h3.11V8.92H68.36Zm74-1.53.05.05,2,2,1.61-.18a4.64,4.64,0,1,1-3.43-7.78A4.7,4.7,0,0,1,143.33,14l2.72-.92a7.47,7.47,0,1,0-3.18,10.07,7.13,7.13,0,0,0,1.81-1.32l-.05,1.42,1.87,1.87L148,16.3Z"/><path class="cls-2" d="M78.61,33.23h2.56v1.61a4,4,0,0,1-1.17.63,3.91,3.91,0,0,1-1.4.26,3.22,3.22,0,0,1-2.32-.87,3.48,3.48,0,0,1-.9-2.61,4,4,0,0,1,.42-1.92A2.69,2.69,0,0,1,77,29.17a3.31,3.31,0,0,1,1.63-.37,3.43,3.43,0,0,1,1.19.21,2,2,0,0,1,.84.58,2.78,2.78,0,0,1,.53,1.11l1-.29A3.74,3.74,0,0,0,81.5,29a3.18,3.18,0,0,0-1.19-.82,5.2,5.2,0,0,0-3.93.21,3.83,3.83,0,0,0-1.53,1.56,5.09,5.09,0,0,0-.58,2.48,4.57,4.57,0,0,0,.58,2.4,4.22,4.22,0,0,0,1.58,1.53,4.83,4.83,0,0,0,2.27.53,5,5,0,0,0,1.87-.34,4.51,4.51,0,0,0,.63-.29v.53h1.13v-4.5H78.64v1ZM51,34c-.21.61-.37,1.08-.47,1.4l-.42-1.29L48,28H46.24v8.67h1.11V29.25l2.53,7.38h1l2.53-7.25v7.25h1.11V28H53Zm13.13-6L61,36.63h1.13L63,34h3.43l1,2.64H68.6L65.25,28Zm-.82,5.11.9-2.53a12,12,0,0,0,.45-1.66c.13.45.32,1.05.58,1.79L66,33.07ZM91.49,28l-3.14,8.67h1.13l.9-2.64h3.43l1,2.64H96L92.65,28Zm-.82,5.11.9-2.53A12.31,12.31,0,0,0,92,28.88c.13.45.32,1.05.58,1.79l.84,2.4Zm38,1.71-4.3-6.8h-1.11v8.67h1V29.83l4.27,6.83h1.11V28h-1v6.8Zm9.52.82v-3h4.51V31.57h-4.51V29H143V28h-5.88v8.67h6.09V35.57Zm-23.41,1h1.08V28h-1.08ZM103.58,35l4.56-6V28h-5.83v1h4.56a11.4,11.4,0,0,0-.84,1l-4.19,5.57v1h6.43v-1h-5.19Z"/><path class="cls-3" d="M17.37,22.31c-5.19-2-9.57-5.48-9.86-10A10,10,0,0,1,10,4.65L2.21,6.49A2.87,2.87,0,0,0,.08,10h0l6.43,27A2.89,2.89,0,0,0,10,39.06h0l3.32-.79a37.18,37.18,0,0,1-5.64-2.37l3.08-7a14.48,14.48,0,0,0,8.86,3.24C24.83,32.12,27.15,26,17.37,22.31Zm21.7,6.85L32.64,2.22A2.87,2.87,0,0,0,29.18.08h0L23.6,1.41a24.1,24.1,0,0,1,7.3,2.45l-2.43,6.71s-2-2.24-7.41-2.53c-5.11-.26-8,5.3,2,8.57,7.65,2.5,10.1,7.33,10,11.78A10.81,10.81,0,0,1,31.24,34l5.67-1.34a2.91,2.91,0,0,0,2.16-3.52h0Z"/><path class="cls-4" d="M31.93,2.38A2.18,2.18,0,0,0,29.32.77l-4,1a25.56,25.56,0,0,1,5.62,2.11l-2.47,6.69s-2-2.24-7.41-2.53c-5.11-.26-8,5.3,2,8.57a17.76,17.76,0,0,1,6.14,3.27l.18-.05c2-.71,3.82-3.27,5.19-6.3ZM7.49,12.27A10.33,10.33,0,0,1,9.2,5.57L2.35,7.21A2.18,2.18,0,0,0,.74,9.82L4.43,25.29a16.45,16.45,0,0,1,8-5.51C9.65,17.83,7.7,15.27,7.49,12.27Z"/></svg>