<svg id="Layer_1" data-name="Layer 1" xmlns="http://www.w3.org/2000/svg" viewBox="0 0 66.04 65.12"><defs><style>.cls-1{fill:#d59541;}</style></defs><title>tools</title><path class="cls-1" d="M13.06,25.3A12.76,12.76,0,0,0,17,24.69l7.46,7.45L32.58,24l-7.46-7.46A12.69,12.69,0,0,0,22,3.7,12.52,12.52,0,0,0,13.1,0,12.78,12.78,0,0,0,7.63,1.23a.88.88,0,0,0-.41,1.16,1,1,0,0,0,.17.24l7.85,7.85a3,3,0,0,1,0,4.31l0,0a3.14,3.14,0,0,1-4.32,0L3.06,7A.87.87,0,0,0,1.83,7a1,1,0,0,0-.17.24,12.64,12.64,0,0,0,11.4,18.1ZM52.92,39.82a12.85,12.85,0,0,0-3.89.61l-8.25-8.25L32.6,40.35l8.25,8.25A12.74,12.74,0,0,0,44,61.42a12.54,12.54,0,0,0,8.93,3.7,12.76,12.76,0,0,0,5.47-1.24.86.86,0,0,0,.41-1.16.81.81,0,0,0-.17-.24l-7.85-7.85a3,3,0,0,1-.07-4.24l.07-.08a3.14,3.14,0,0,1,4.32,0L63,58.16a.87.87,0,0,0,1.23,0,.81.81,0,0,0,.17-.24A12.64,12.64,0,0,0,53,39.82Z"/><path class="cls-1" d="M49.56,21.21s1.37,1.2,2.49.64,4.86,2.89,6,3.72l-.63.63a2.12,2.12,0,0,0,3,3l5-4.94a2.12,2.12,0,0,0-3-3h0l-.82.82c-.68-.94-1.82-2.54-1.67-3.08.6-2.33-4.14-7.82-4.14-7.82C44-.6,36.12-.33,32.38,1c-1.5.52-1.22.84.34,1.12,11.36,2,12.77,8.68,10.84,11.26-.74,1,.34,2.2.34,2.2l.41.4L25.12,35.12a3.63,3.63,0,0,1,.73.56l3.23,3.22a3.25,3.25,0,0,1,.55.73L48.81,20.46ZM24.57,37a2,2,0,0,0-2.67-.1L.59,56A1.69,1.69,0,0,0,.4,58.37l.1.11,5.8,5.8a1.69,1.69,0,0,0,2.38,0,.52.52,0,0,0,.1-.11L27.89,42.86a2,2,0,0,0-.1-2.67Z"/></svg>